<?xml version="1.0" encoding="utf-8"?>
<!-- Generator: Adobe Illustrator 17.0.0, SVG Export Plug-In . SVG Version: 6.00 Build 0)  -->
<!DOCTYPE svg PUBLIC "-//W3C//DTD SVG 1.1//EN" "http://www.w3.org/Graphics/SVG/1.1/DTD/svg11.dtd">
<svg version="1.1" id="Layer_1" xmlns="http://www.w3.org/2000/svg" xmlns:xlink="http://www.w3.org/1999/xlink" x="0px" y="0px"
	 width="360px" height="360px" viewBox="0 0 360 360" enable-background="new 0 0 360 360" xml:space="preserve">
<title>Provident &amp;amp; Fund</title>
<g>
	<path fill="#0B050C" d="M304.621,196.979c0-2.916-2.364-5.279-5.279-5.279c-2.915,0-5.279,2.364-5.279,5.279
		c0,3.696-3.007,6.703-6.703,6.703c-3.695,0-6.703-3.007-6.703-6.703c0-2.916-2.364-5.279-5.279-5.279
		c-2.915,0-5.279,2.364-5.279,5.279c0,9.518,7.744,17.261,17.261,17.261C296.877,214.241,304.621,206.497,304.621,196.979
		L304.621,196.979z"/>
	<path fill="#0B050C" d="M14.822,188.434c-0.546-1.127,0.743-3.107,1.561-4.188c1.296-1.712,2.49-2.062,3.392-2.062
		c0.191,0,0.368,0.016,0.531,0.038c2.427,0.324,5.828,2.995,7.63,7.473c0.424,1.054,0.976,2.801,1.105,4.979
		C21.732,193.158,16.055,190.976,14.822,188.434L14.822,188.434z M298.474,129.821c-2.032,17.377-7.482,32.241-12.959,35.343
		c-6.225,3.526-20.597,4.207-31.387-3.686c-10.803-7.903-14.399-22.114-10.399-41.097c0-0.001,0-0.001,0-0.001
		c0.402-1.907,1.756-3.556,3.623-4.41c26.43-12.098,41.667-16.055,47.328-16.055c0.854,0,1.491,0.09,1.914,0.256
		C298.295,101.981,300.525,112.284,298.474,129.821L298.474,129.821z M348.895,192.563l-14.859-4.76
		c-1.903-0.61-3.403-2.129-4.012-4.064c-3.132-9.956-7.857-19.304-14.046-27.783c-2.821-3.865-5.957-7.555-9.383-11.069
		c0,0.001,0,0.001,0,0.001c2.192-9.616,3.384-20.5,3.229-29.903c-0.221-13.451-2.909-21.34-8.217-24.12
		c-2.859-1.499-11.559-6.053-58.651,15.503c-1.115,0.51-2.157,1.139-3.121,1.858c-3.175-0.853-6.42-1.642-9.684-2.351
		c-0.393-0.086-0.798-0.162-1.195-0.245l0,0c3.816-8.336,6.044-17.39,6.463-26.737c0.13-2.913-2.125-5.38-5.038-5.51
		c-2.906-0.145-5.38,2.124-5.51,5.037c-0.688,15.368-7.063,29.828-17.95,40.715c-6.505,6.505-14.121,11.23-22.238,14.205
		c-14.077-1.975-28.416-1.975-42.493,0c-8.118-2.976-15.734-7.701-22.238-14.205c-11.615-11.615-18.012-27.058-18.012-43.485
		c0-16.427,6.397-31.87,18.012-43.485c11.615-11.616,27.059-18.013,43.485-18.013s31.87,6.397,43.485,18.013
		c4.668,4.668,8.525,9.994,11.464,15.83c1.311,2.604,4.486,3.653,7.09,2.341c2.604-1.311,3.652-4.486,2.341-7.089
		c-3.445-6.843-7.964-13.083-13.428-18.548c-13.609-13.609-31.704-21.105-50.951-21.105s-37.341,7.495-50.951,21.105
		c-13.61,13.61-21.105,31.704-21.105,50.951s7.495,37.341,21.105,50.951c3.926,3.926,8.197,7.302,12.714,10.13
		c0.001,0,0.003-0.001,0.004-0.001c-3.282,0.853-6.54,1.811-9.762,2.888c-2.765,0.925-4.257,3.915-3.333,6.681
		c0.924,2.765,3.916,4.257,6.68,3.333c28.79-9.625,60.503-9.625,89.293,0c0.555,0.186,1.119,0.273,1.674,0.273
		c2.208,0,4.267-1.397,5.006-3.607c0.925-2.765-0.567-5.757-3.333-6.681c-3.222-1.077-6.479-2.035-9.762-2.888
		c0.001,0,0.003,0.001,0.004,0.001c4.518-2.828,8.788-6.204,12.714-10.13c3.473-3.473,6.539-7.266,9.201-11.296
		c1.455,0.283,2.9,0.579,4.323,0.888c1.896,0.412,3.783,0.854,5.654,1.318c-0.059,0.23-0.119,0.458-0.168,0.691
		c-2.575,12.218-2.408,23.024,0.497,32.116c2.61,8.173,7.321,14.793,14,19.68c7.872,5.759,17.376,8.246,25.985,8.246
		c6.479,0,12.453-1.41,16.84-3.895c4.962-2.811,9.12-8.733,12.411-17.625c1.521,1.775,2.963,3.594,4.322,5.456
		c5.51,7.548,9.716,15.867,12.502,24.725c1.636,5.202,5.697,9.296,10.863,10.952l14.859,4.76c3.899,1.249,6.518,4.838,6.518,8.931
		v24.638c0,4.094-2.619,7.682-6.518,8.931l-23.939,7.668c-3.83,1.228-7.071,3.86-9.127,7.412
		c-9.405,16.254-24.192,29.705-43.953,39.979c-2.283,1.188-3.864,3.313-4.34,5.831l-7.667,40.599c-0.212,1.119-1.192,1.93-2.33,1.93
		h-24.93c-1.139,0-2.118-0.812-2.33-1.93l-4.247-22.437c-0.836-4.415-4.976-7.347-9.433-6.672
		c-10.739,1.624-21.804,2.446-32.887,2.446c-8.245,0-16.385-0.46-24.195-1.367c-4.318-0.497-8.341,2.447-9.148,6.711l-4.036,21.319
		c-0.212,1.119-1.192,1.93-2.33,1.93h-24.93c-1.139,0-2.118-0.812-2.333-1.947l-7.383-38.345c-0.475-2.471-2.027-4.571-4.259-5.764
		c-33.685-17.983-51.489-48.025-51.489-86.879c0-19.631,4.295-36.99,12.765-51.596c7.904-13.631,19.448-24.901,34.312-33.498
		c2.524-1.46,3.386-4.69,1.926-7.214c-1.459-2.524-4.689-3.384-7.213-1.926c-28.821,16.672-46.204,42.394-50.99,75.062v-0.001
		c-0.508-0.046-1.017-0.09-1.523-0.142c0.092-3.525-0.546-7.081-1.934-10.533c-3.063-7.614-9.354-13.109-16.029-13.999
		c-5.26-0.704-10.265,1.529-13.739,6.119c-5.037,6.656-4.216,11.923-2.641,15.169c2.659,5.479,9.494,9.354,20.836,11.791
		c-0.312,0.467-0.655,0.936-1.03,1.407c-6.702,8.405-14.597,10.263-19.724,10.438C2.403,216.781,0,219.191,0,222.194v0.026
		c0,2.962,2.337,5.378,5.297,5.514c0.379,0.018,0.775,0.027,1.187,0.027c6.487,0,16.898-2.393,26.901-14.935
		c1.579-1.98,2.866-4.068,3.855-6.226c0.996,0.113,1.953,0.209,2.87,0.294c0-0.002,0-0.004,0.001-0.006
		c-0.18,2.861-0.28,5.764-0.28,8.717c0,21.983,5.241,41.584,15.576,58.26c9.529,15.374,23.173,27.963,40.565,37.43l7.177,37.278
		c1.154,6.099,6.497,10.525,12.704,10.525h24.93c6.207,0,11.55-4.427,12.704-10.525l3.649-19.277
		c7.578,0.803,15.424,1.209,23.356,1.209c10.882,0,21.752-0.758,32.346-2.254l3.846,20.323c1.155,6.099,6.498,10.525,12.704,10.525
		h24.93c6.207,0,11.55-4.427,12.705-10.528l7.465-39.528c21.091-11.152,36.988-25.803,47.26-43.555c0.74-1.28,1.88-2.218,3.21-2.644
		l23.939-7.668c8.287-2.656,13.855-10.286,13.855-18.988V211.55C362.75,202.848,357.182,195.218,348.895,192.563L348.895,192.563z"
		/>
	<path fill="#0B050C" d="M168.005,79.932v19.637c5.025-0.931,8.189-3.909,8.189-9.214C176.194,84.492,172.565,81.886,168.005,79.932
		L168.005,79.932z M163.631,67.833V50.896c-5.212,0.651-8.934,2.978-8.934,7.818C154.697,64.018,158.698,65.972,163.631,67.833
		L163.631,67.833z M163.072,108.783c-11.54-0.186-19.358-6.422-19.358-10.982c0-2.234,1.954-5.305,4.281-5.305
		c3.071,0,5.584,6.515,15.077,7.259V77.885c-8.376-2.978-17.683-6.328-17.683-18.241c0-11.726,8.841-16.38,17.683-17.311v-2.699
		c0-1.117,1.117-2.14,2.699-2.14c1.396,0,2.792,1.024,2.792,2.14v2.513c6.328,0.186,15.263,2.14,15.263,6.701
		c0,1.768-1.303,5.305-4.095,5.305c-2.233,0-4.653-2.978-11.168-3.443v18.892c8.097,2.978,16.938,7.073,16.938,19.73
		c0,11.447-6.887,17.775-16.938,19.172v3.164c0,1.117-1.396,2.14-2.792,2.14c-1.582,0-2.699-1.024-2.699-2.14V108.783
		L163.072,108.783L163.072,108.783z"/>
</g>
</svg>
