<svg xmlns="http://www.w3.org/2000/svg" viewBox="0 0 64 64"><defs><style>.cls-1{fill:#181b31;}</style></defs><title>Bonuses</title><g id="Layer_2" data-name="Layer 2"><g id="Layer_1-2" data-name="Layer 1"><path class="cls-1" d="M11.34,64A5.14,5.14,0,0,1,6.2,58.87V37.14H5.14A5.14,5.14,0,0,1,0,32V23.73A5.14,5.14,0,0,1,5.14,18.6H16.27l-1.34-1.54A10.3,10.3,0,1,1,31.23,4.54L32,5.67l.77-1.13a10.3,10.3,0,1,1,16.3,12.52L47.73,18.6H58.86A5.14,5.14,0,0,1,64,23.73V32a5.14,5.14,0,0,1-5.14,5.14H57.8V58.87A5.14,5.14,0,0,1,52.66,64ZM33,62H52.67a3.13,3.13,0,0,0,3.13-3.12V37.14H33ZM8.21,58.87A3.13,3.13,0,0,0,11.34,62H31V37.14H8.21ZM33,35.13H58.86A3.13,3.13,0,0,0,62,32V23.73a3.13,3.13,0,0,0-3.13-3.13H33ZM5.14,20.6A3.13,3.13,0,0,0,2,23.73V32a3.13,3.13,0,0,0,3.13,3.13H31V20.6ZM41.3,2A8.31,8.31,0,0,0,33,10.3v8.3h8.3A8.3,8.3,0,1,0,41.3,2ZM22.7,2a8.3,8.3,0,0,0,0,16.59H31V10.3A8.3,8.3,0,0,0,22.7,2Z"/></g></g></svg>