<svg xmlns="http://www.w3.org/2000/svg" viewBox="0 0 64 64"><defs><style>.cls-1{fill:#181b31;}</style></defs><title>Parental leave</title><g id="Layer_2" data-name="Layer 2"><g id="Layer_1-2" data-name="Layer 1"><path class="cls-1" d="M51.63,64a6.16,6.16,0,0,1-5.38-9.18l.34-.61-3.14-3.14-.48.09a26.37,26.37,0,0,1-4.77.44,26.06,26.06,0,0,1-6.41-.8l-.51-.13-3.54,3.54.34.61a6.18,6.18,0,1,1-2.37-2.37l.61.34,2.8-2.8-1.24-.54A25.85,25.85,0,0,1,12.4,25.8,11.41,11.41,0,0,0,1,14.41a1,1,0,0,1,0-2A13.42,13.42,0,0,1,14.28,24l.11.81H37.2V1a1,1,0,0,1,1-1,25.8,25.8,0,0,1,8.9,50l-1.36.5L48,52.79l.61-.34a6.17,6.17,0,1,1,3,11.55Zm0-10.33a4.16,4.16,0,1,0,4.16,4.16A4.17,4.17,0,0,0,51.63,53.67Zm-28.93,0a4.16,4.16,0,1,0,4.16,4.16A4.16,4.16,0,0,0,22.7,53.67ZM14.49,27.81a23.79,23.79,0,0,0,47.42,0l.08-1H14.4Zm26.13-3H62l-.08-1a23.66,23.66,0,0,0-5.53-13.33l-.65-.77ZM39.2,23.38,54.31,8.27l-.77-.65A23.66,23.66,0,0,0,40.21,2.09L39.2,2Z"/></g></g></svg>