<svg xmlns="http://www.w3.org/2000/svg" viewBox="0 0 64 33.35"><defs><style>.cls-1{fill:#181b31;}</style></defs><title>Vehicle</title><g id="Layer_2" data-name="Layer 2"><g id="Layer_1-2" data-name="Layer 1"><path class="cls-1" d="M49.87,33.35a7,7,0,0,1-6.8-5.27L43,27.84H20.25l-.06.24a7,7,0,0,1-5,5,7.12,7.12,0,0,1-1.78.23,7,7,0,0,1-6.8-5.27l-.06-.24H5.41A5.47,5.47,0,0,1,0,22.33V18.55a5.47,5.47,0,0,1,4-5.26l10-2.73,6-7.84A7,7,0,0,1,25.5,0H45a6.88,6.88,0,0,1,5.89,3.24l4.63,7.39,5.28,2.42A5.44,5.44,0,0,1,64,18v4.31a5.47,5.47,0,0,1-5.41,5.51H56.75l-.07.24a7.06,7.06,0,0,1-6.81,5.27Zm0-12.09a5,5,0,1,0,3.56,8.57,5,5,0,0,0,1.47-3.54A5,5,0,0,0,49.87,21.26Zm-36.5,0a5,5,0,1,0,3.57,8.57,4.91,4.91,0,0,0,1.46-3.54A5,5,0,0,0,13.37,21.26Zm36.52-2a7,7,0,0,1,7,6.26l0,.29h1.7A3.46,3.46,0,0,0,62,22.33V22h0V18a3.44,3.44,0,0,0-2-3.15l-5.54-2.53A1,1,0,0,1,54,12L49.22,4.3A4.91,4.91,0,0,0,45.06,2H25.5a5,5,0,0,0-4,1.93L15.37,12a1.05,1.05,0,0,1-.53.36L4.52,15.21A3.46,3.46,0,0,0,2,18.56v3.77a3.46,3.46,0,0,0,3.41,3.5h.95l0-.29a7.06,7.06,0,0,1,6.22-6.21,7.13,7.13,0,0,1,.79,0,7,7,0,0,1,7,6.26l0,.29H42.85l0-.29a7.12,7.12,0,0,1,7-6.26Z"/></g></g></svg>