<svg xmlns="http://www.w3.org/2000/svg" viewBox="0 0 54.09 64"><defs><style>.cls-1{fill:#181b31;}</style></defs><title>Medical Insurance</title><g id="Layer_2" data-name="Layer 2"><g id="Layer_1-2" data-name="Layer 1"><path class="cls-1" d="M27,64a3.38,3.38,0,0,1-1-.17,41,41,0,0,1-15.31-9A32.34,32.34,0,0,1,2.91,42.74C-.26,34.15-.08,24.62.07,17c0-1.69.06-3.25.06-4.76A3.18,3.18,0,0,1,3.3,9c9,0,15.84-2.57,21.53-8.1a3.14,3.14,0,0,1,4.42,0C34.94,6.44,41.79,9,50.79,9A3.18,3.18,0,0,1,54,12.19c0,1.48,0,3,.06,4.66V17c.15,7.66.33,17.2-2.84,25.78A32.34,32.34,0,0,1,43.4,54.82a41,41,0,0,1-15.32,9A3,3,0,0,1,27,64ZM27,2a1.14,1.14,0,0,0-.81.34C20.14,8.26,12.86,11,3.3,11a1.17,1.17,0,0,0-1.17,1.17c0,1.54,0,3.1-.06,4.76C1.92,24.88,1.75,33.81,4.79,42c3.51,9.5,10.67,16,21.87,19.89l.15,0H27a1.21,1.21,0,0,0,.38-.06C38.63,58.05,45.78,51.54,49.29,42c3.05-8.23,2.88-17.16,2.73-25,0-1.72-.07-3.28-.07-4.8A1.16,1.16,0,0,0,50.79,11c-9.56,0-16.85-2.76-22.93-8.68A1.2,1.2,0,0,0,27,2Z"/><path class="cls-1" d="M23.19,44.35a1,1,0,0,1-1-1V36.21H15.06a1,1,0,0,1-1-1v-7.7a1,1,0,0,1,1-1h7.13V19.37a1,1,0,0,1,1-1h7.7a1,1,0,0,1,1,1v7.14H39a1,1,0,0,1,1,1v7.7a1,1,0,0,1-1,1H31.9v7.14a1,1,0,0,1-1,1ZM16.06,34.21h7.13a1,1,0,0,1,1,1v7.13h5.69V35.21a1,1,0,0,1,1-1H38v-5.7H30.89a1,1,0,0,1-1-1V20.38H24.2v7.13a1,1,0,0,1-1,1H16.06Z"/></g></g></svg>