<svg xmlns="http://www.w3.org/2000/svg" viewBox="0 0 61.06 64"><defs><style>.cls-1{fill:#181b31;}</style></defs><title>Training</title><g id="Layer_2" data-name="Layer 2"><g id="Layer_1-2" data-name="Layer 1"><path class="cls-1" d="M45.76,64a1,1,0,0,1-.88-.44l-8.8-16.27H25L19.23,57.88q-1.55,2.84-3.07,5.68a.92.92,0,0,1-.81.41,1.23,1.23,0,0,1-.57-.14.7.7,0,0,1-.35-.46,1.19,1.19,0,0,1,.08-.89l8.22-15.19H5.08a9.74,9.74,0,0,1-1.86-.12A4.06,4.06,0,0,1,1.15,46,4.56,4.56,0,0,1,0,43.15c0-.12,0-.23,0-.33V4.32a4.48,4.48,0,0,1,1.19-3A4.33,4.33,0,0,1,4.29,0H56.6a5.56,5.56,0,0,1,1.32.14A4.3,4.3,0,0,1,61,3.88V4l0,.09a.67.67,0,0,1,0,.18V43a4.49,4.49,0,0,1-1.15,3,4.22,4.22,0,0,1-3.14,1.34H38.31l5.14,9.51c1,1.9,2.06,3.78,3.08,5.68a1,1,0,0,1-.39,1.42A.72.72,0,0,1,45.76,64ZM2,4.27c0,1,0,2.05,0,3.08v34.9c0,.29,0,.58,0,.86v.16l0,.15c0,.12.07.23.1.35l0,.15s.15.28.2.35l.07.13.11.11.2.21.13.12.34.2.14.07.15,0,.4.11.12,0,.27,0H57.06l.15,0,.33-.09.15,0,.47-.27.33-.31.11-.12.2-.33.08-.15,0-.16c0-.15.08-.28.11-.4l0-.17V43c0-1,0-2,0-3V4.08l0-.17c0-.13-.07-.26-.1-.38l0-.15-.08-.16-.2-.34-.31-.32-.13-.12-.45-.26-.17-.06L57.14,2,57,2H4L3.85,2a3.37,3.37,0,0,0-.34.09l-.15,0L3,2.35l-.16.09-.32.31-.11.12-.2.33-.08.15,0,.16c-.05.16-.08.28-.11.4l0,.17v.19Z"/><path class="cls-1" d="M12.25,33.4a1.14,1.14,0,0,1-.77-.31.83.83,0,0,1-.23-.59,1,1,0,0,1,.27-.75L25.3,18A1,1,0,0,1,26,17.7a1,1,0,0,1,.7.27l8.8,8.81L48.13,14.15a.86.86,0,0,1,.65-.27,1.17,1.17,0,0,1,.79.32.82.82,0,0,1,.22.58,1,1,0,0,1-.28.75L36.19,28.86a1,1,0,0,1-.69.27,1,1,0,0,1-.7-.27L26,20.05,12.91,33.13A.9.9,0,0,1,12.25,33.4Z"/></g></g></svg>