<svg width="100" height="100" viewBox="0 0 100 100" fill="none" xmlns="http://www.w3.org/2000/svg">
<g clip-path="url(#clip0_110_1072)">
<path d="M10 100H50C55.5206 99.9945 59.9945 95.5206 60 90C60 89.0795 59.2538 88.3333 58.3333 88.3333C57.4129 88.3333 56.6667 89.0795 56.6667 90C56.6667 93.6819 53.6819 96.6667 50 96.6667H10C6.3181 96.6667 3.33333 93.6819 3.33333 90V10C3.33333 6.3181 6.3181 3.33333 10 3.33333H10.6367L14.255 10.57C15.0975 12.2677 16.8314 13.3392 18.7267 13.3333H41.2733C43.1686 13.3392 44.9025 12.2677 45.745 10.57L49.3633 3.33333H50C53.6819 3.33333 56.6667 6.3181 56.6667 10V13.3333C56.6667 14.2538 57.4129 15 58.3333 15C59.2538 15 60 14.2538 60 13.3333V10C59.9945 4.47944 55.5206 0.0055123 50 0H10C4.47944 0.0055123 0.0055123 4.47944 0 10V90C0.0055123 95.5206 4.47944 99.9945 10 100ZM42.7633 9.07833C42.4833 9.64481 41.9052 10.0024 41.2733 10H18.7267C18.0948 10.0024 17.5167 9.64481 17.2367 9.07833L14.3633 3.33333H45.6367L42.7633 9.07833Z" fill="black"/>
<path d="M43.3333 93.3333C44.2538 93.3333 45 92.5871 45 91.6667C45 90.7462 44.2538 90 43.3333 90H16.6667C15.7462 90 15 90.7462 15 91.6667C15 92.5871 15.7462 93.3333 16.6667 93.3333H43.3333Z" fill="black"/>
<path d="M89.9992 18.333H43.3325C37.812 18.3385 33.338 22.8124 33.3325 28.333V38.9997L15.0875 48.7297C14.0043 49.3099 13.3281 50.4391 13.3281 51.668C13.3281 52.8969 14.0043 54.0261 15.0875 54.6063L33.3325 64.333V74.9997C33.338 80.5202 37.812 84.9942 43.3325 84.9997H89.9992C95.5197 84.9942 99.9937 80.5202 99.9992 74.9997V28.333C99.9937 22.8124 95.5197 18.3385 89.9992 18.333ZM96.6658 74.9997C96.6658 78.6816 93.6811 81.6663 89.9992 81.6663H43.3325C39.6506 81.6663 36.6658 78.6816 36.6658 74.9997V63.333C36.6664 62.7173 36.3274 62.1514 35.7842 61.8613L16.6658 51.6663L35.7892 41.468C36.3294 41.1772 36.6661 40.6132 36.6658 39.9997V28.333C36.6658 24.6511 39.6506 21.6663 43.3325 21.6663H89.9992C93.6811 21.6663 96.6658 24.6511 96.6658 28.333V74.9997Z" fill="black"/>
<path d="M86.6673 36.667H52.2457L52.109 35.8453C51.7131 33.4311 49.6238 31.6609 47.1773 31.667H45.0007C44.0802 31.667 43.334 32.4132 43.334 33.3337C43.334 34.2541 44.0802 35.0003 45.0007 35.0003H47.1773C47.9915 35.0006 48.6863 35.589 48.8207 36.392L52.8923 60.822C53.0893 62.0138 53.7124 63.0934 54.6456 63.8603C52.8159 66.105 52.9099 69.352 54.8664 71.4871C56.8229 73.6221 60.0494 73.9986 62.4449 72.3714C64.8404 70.7441 65.6794 67.6059 64.4157 65.0003H72.249C71.87 65.7795 71.6712 66.6339 71.6673 67.5003C71.6673 70.722 74.279 73.3337 77.5007 73.3337C80.7223 73.3337 83.334 70.722 83.334 67.5003C83.3291 66.6337 83.1292 65.7792 82.749 65.0003H83.334C84.2545 65.0003 85.0007 64.2542 85.0007 63.3337C85.0007 62.4132 84.2545 61.667 83.334 61.667H57.824C57.0098 61.6668 56.315 61.0783 56.1807 60.2753L55.8573 58.3337H81.2173C82.6193 58.3329 83.8709 57.4549 84.349 56.137L89.799 41.137C90.1695 40.1156 90.0189 38.9776 89.3955 38.0877C88.772 37.1978 87.7539 36.6676 86.6673 36.667ZM61.6673 67.5003C61.6673 68.8811 60.548 70.0003 59.1673 70.0003C57.7866 70.0003 56.6673 68.8811 56.6673 67.5003C56.6673 66.1196 57.7866 65.0003 59.1673 65.0003C60.548 65.0003 61.6673 66.1196 61.6673 67.5003ZM80.0007 67.5003C80.0007 68.8811 78.8814 70.0003 77.5007 70.0003C76.1199 70.0003 75.0007 68.8811 75.0007 67.5003C75.0007 66.1196 76.1199 65.0003 77.5007 65.0003C78.8814 65.0003 80.0007 66.1196 80.0007 67.5003ZM81.2173 55.0003H55.3007L52.8007 40.0003H86.6673L81.2173 55.0003Z" fill="black"/>
</g>
<defs>
<clipPath id="clip0_110_1072">
<rect width="100" height="100" fill="white"/>
</clipPath>
</defs>
</svg>
