<svg width="100" height="100" viewBox="0 0 100 100" fill="none" xmlns="http://www.w3.org/2000/svg">
<path d="M96.875 56.984L93.8375 56.3965C93.3864 54.8585 92.7704 53.3738 92 51.9684L93.7344 49.4215C93.9395 49.121 94.0333 48.7583 93.9996 48.3961C93.966 48.0338 93.807 47.6947 93.55 47.4371L87.7438 41.6309C87.4868 41.3742 87.1484 41.2151 86.7868 41.1809C86.4253 41.1467 86.0631 41.2395 85.7625 41.4434L83.2063 43.1746C81.8004 42.4051 80.3158 41.7891 78.7781 41.3371L78.1938 38.309C78.1248 37.9527 77.9339 37.6314 77.654 37.4005C77.374 37.1696 77.0223 37.0433 76.6594 37.0434H74.125V12.3715C74.1225 10.2317 73.2712 8.18039 71.7579 6.66765C70.2446 5.15492 68.1929 4.30439 66.0531 4.30273H25.7688C23.6296 4.30522 21.5787 5.15611 20.066 6.66876C18.5534 8.1814 17.7025 10.2323 17.7 12.3715V22.4059L17.3313 24.334C16.2097 24.6748 15.1252 25.1271 14.0938 25.684L12.2188 24.4121C11.9179 24.2074 11.5551 24.1141 11.1928 24.1484C10.8305 24.1826 10.4916 24.3422 10.2344 24.5996L5.625 29.2215C5.36866 29.4779 5.20946 29.8154 5.17469 30.1763C5.13991 30.5372 5.23172 30.899 5.43438 31.1996L6.7 33.0746C6.14857 34.1068 5.69854 35.19 5.35625 36.309L3.125 36.7371C2.77155 36.8093 2.45395 37.0015 2.22611 37.2812C1.99826 37.5608 1.87421 37.9107 1.875 38.2715V44.7965C1.87421 45.1572 1.99826 45.5071 2.22611 45.7868C2.45395 46.0665 2.77155 46.2587 3.125 46.3309L5.34375 46.7559C5.6887 47.8789 6.14295 48.9653 6.7 49.9996L5.45 51.8746C5.24734 52.1752 5.15553 52.537 5.19031 52.8979C5.22509 53.2588 5.38429 53.5963 5.64063 53.8527L10.2531 58.4684C10.5097 58.7255 10.8479 58.8852 11.2095 58.92C11.5711 58.9548 11.9335 58.8625 12.2344 58.659L14.1094 57.3902C15.1415 57.9479 16.2272 58.4002 17.35 58.7402L17.7188 60.6684V87.634C17.7212 89.7732 18.5721 91.8241 20.0848 93.3367C21.5974 94.8494 23.6483 95.7003 25.7875 95.7027H66.0438C68.0801 95.6973 70.0388 94.9206 71.5254 93.529C73.0121 92.1374 73.9164 90.2343 74.0563 88.2027H76.65C77.0134 88.2027 77.3654 88.076 77.6454 87.8444C77.9255 87.6128 78.1161 87.2909 78.1844 86.934L78.7688 83.909C80.3082 83.4592 81.794 82.8431 83.2 82.0715L85.7531 83.8027C86.054 84.0062 86.4165 84.0985 86.778 84.0637C87.1396 84.0289 87.4778 83.8692 87.7344 83.6121L93.5406 77.8121C93.7976 77.5546 93.9566 77.2154 93.9902 76.8531C94.0239 76.4909 93.9301 76.1282 93.725 75.8277L91.9906 73.2777C92.7634 71.8712 93.3796 70.3842 93.8281 68.8434L96.875 68.2527C97.2313 68.1838 97.5526 67.9929 97.7835 67.7129C98.0144 67.433 98.1407 67.0813 98.1406 66.7184V58.5215C98.1414 58.158 98.0155 57.8056 97.7845 57.525C97.5535 57.2444 97.2319 57.053 96.875 56.984ZM74.125 54.1559C76.1051 54.5183 77.8954 55.5637 79.1842 57.1099C80.4731 58.6561 81.179 60.6054 81.179 62.6184C81.179 64.6313 80.4731 66.5806 79.1842 68.1268C77.8954 69.6731 76.1051 70.7184 74.125 71.0809V54.1559ZM14.8406 54.2121C14.5853 54.0561 14.2905 53.9767 13.9914 53.9834C13.6922 53.99 13.4013 54.0824 13.1531 54.2496L11.5438 55.3402L8.75 52.5527L9.8375 50.9465C10.005 50.6993 10.0981 50.4092 10.1059 50.1107C10.1136 49.8122 10.0357 49.5177 9.88125 49.2621C9.08287 47.955 8.49249 46.5318 8.13125 45.0434C8.06171 44.7513 7.90948 44.4854 7.69279 44.2776C7.47609 44.0698 7.20411 43.9288 6.90938 43.8715L5 43.5059V39.559L6.9125 39.1902C7.20666 39.1324 7.47798 38.9912 7.69408 38.7834C7.91018 38.5756 8.06194 38.31 8.13125 38.0184C8.49286 36.532 9.08324 35.1109 9.88125 33.8059C10.0357 33.5503 10.1136 33.2558 10.1059 32.9573C10.0981 32.6588 10.005 32.3687 9.8375 32.1215L8.75 30.5184L11.5375 27.7246L13.1438 28.8152C13.3919 28.9835 13.6833 29.0768 13.9831 29.084C14.2829 29.0912 14.5784 29.012 14.8344 28.8559C16.139 28.0578 17.5603 27.4684 19.0469 27.109C19.3394 27.0392 19.6055 26.8865 19.8134 26.6692C20.0213 26.4519 20.162 26.1793 20.2188 25.884L20.5844 23.9777H24.5281L24.8969 25.884C24.9536 26.1793 25.0944 26.4519 25.3022 26.6692C25.5101 26.8865 25.7763 27.0392 26.0688 27.109C27.553 27.4664 28.9715 28.056 30.2719 28.8559C30.5282 29.0127 30.8243 29.0922 31.1247 29.085C31.4251 29.0778 31.7171 28.9842 31.9656 28.8152L33.5719 27.7246L36.3656 30.5152L35.2719 32.1184C35.1038 32.3659 35.0103 32.6565 35.0025 32.9557C34.9948 33.2548 35.0731 33.5499 35.2281 33.8059C36.0256 35.1108 36.6149 36.532 36.975 38.0184C37.0448 38.3109 37.1975 38.577 37.4148 38.7849C37.632 38.9927 37.9047 39.1335 38.2 39.1902L40.1125 39.559V43.5059L38.2 43.8715C37.9047 43.9282 37.632 44.069 37.4148 44.2768C37.1975 44.4847 37.0448 44.7509 36.975 45.0434C36.6153 46.5318 36.0259 47.9551 35.2281 49.2621C35.0731 49.5181 34.9948 49.8131 35.0025 50.1123C35.0103 50.4114 35.1038 50.7021 35.2719 50.9496L36.3625 52.5527L33.5719 55.3402L31.9625 54.2496C31.714 54.0818 31.4225 53.989 31.1227 53.9824C30.8229 53.9757 30.5276 54.0555 30.2719 54.2121C28.9715 55.012 27.553 55.6015 26.0688 55.959C25.7763 56.0288 25.5101 56.1815 25.3022 56.3987C25.0944 56.616 24.9536 56.8887 24.8969 57.184L24.5281 59.0902H20.5813L20.2156 57.184C20.1589 56.8887 20.0181 56.616 19.8103 56.3987C19.6024 56.1815 19.3363 56.0288 19.0438 55.959C17.5572 55.5996 16.1359 55.0102 14.8313 54.2121H14.8406ZM27.3406 61.0059C27.3497 60.9879 27.357 60.969 27.3625 60.9496L27.7813 58.7496C28.9031 58.4096 29.9877 57.9573 31.0188 57.3996L32.8938 58.6684C33.1947 58.8718 33.5571 58.9641 33.9187 58.9293C34.2802 58.8945 34.6184 58.7349 34.875 58.4777L39.4938 53.8621C39.7504 53.6051 39.9095 53.2668 39.9437 52.9052C39.9779 52.5436 39.8851 52.1814 39.6813 51.8809L38.4063 49.9996C38.9581 48.967 39.4072 47.8826 39.7469 46.7621L41.9719 46.334C42.3282 46.265 42.6494 46.0742 42.8804 45.7942C43.1113 45.5142 43.2376 45.1626 43.2375 44.7996V38.2715C43.2376 37.9085 43.1113 37.5569 42.8804 37.2769C42.6494 36.9969 42.3282 36.8061 41.9719 36.7371L39.7469 36.3059C39.4066 35.1866 38.9576 34.1033 38.4063 33.0715L39.675 31.1965C39.8789 30.8959 39.9717 30.5337 39.9375 30.1721C39.9033 29.8106 39.7441 29.4722 39.4875 29.2152L34.8688 24.5996C34.6116 24.3422 34.2726 24.1826 33.9103 24.1484C33.5481 24.1141 33.1852 24.2074 32.8844 24.4121L31.0094 25.684C29.9805 25.1287 28.8992 24.6765 27.7813 24.334L27.3531 22.1184C27.3477 22.0999 27.3404 22.0821 27.3313 22.0652V20.4465H31.8375C32.3238 20.9625 32.9102 21.3738 33.5609 21.6554C34.2116 21.9369 34.9129 22.0828 35.6219 22.084H56.1938C56.9031 22.0819 57.6046 21.9357 58.2557 21.6542C58.9068 21.3727 59.4938 20.9618 59.9813 20.4465H64.4813V79.559H27.3313L27.3406 61.0059ZM71 87.6277C70.9983 88.9389 70.4765 90.1959 69.5491 91.1228C68.6216 92.0496 67.3643 92.5707 66.0531 92.5715H25.7688C24.4581 92.5698 23.2016 92.0484 22.2748 91.1217C21.348 90.1949 20.8267 88.9384 20.825 87.6277V62.2152H24.2063V81.1215C24.2063 81.5359 24.3709 81.9333 24.6639 82.2263C24.9569 82.5194 25.3544 82.684 25.7688 82.684H66.0438C66.4582 82.684 66.8556 82.5194 67.1486 82.2263C67.4416 81.9333 67.6063 81.5359 67.6063 81.1215V18.884C67.6063 18.4696 67.4416 18.0722 67.1486 17.7791C66.8556 17.4861 66.4582 17.3215 66.0438 17.3215H59.2563C59.0092 17.3216 58.7656 17.3802 58.5456 17.4927C58.3256 17.6051 58.1354 17.7682 57.9906 17.9684C57.7917 18.2647 57.5248 18.5091 57.2122 18.6814C56.8997 18.8538 56.5505 18.9489 56.1938 18.959H35.625C35.2711 18.9506 34.9244 18.857 34.6144 18.6862C34.3043 18.5154 34.04 18.2724 33.8438 17.9777C33.6994 17.7749 33.5086 17.6096 33.2874 17.4954C33.0661 17.3813 32.8208 17.3216 32.5719 17.3215H25.7688C25.3544 17.3215 24.9569 17.4861 24.6639 17.7791C24.3709 18.0722 24.2063 18.4696 24.2063 18.884V20.8527H20.825V12.3715C20.8267 11.0608 21.348 9.80433 22.2748 8.87755C23.2016 7.95078 24.4581 7.42939 25.7688 7.42774H66.0438C67.355 7.42856 68.6123 7.94959 69.5397 8.87645C70.4672 9.80331 70.989 11.0603 70.9906 12.3715V87.6277H71ZM95.0125 65.4402L92.2844 65.9621C91.9896 66.0194 91.7177 66.1604 91.501 66.3682C91.2843 66.576 91.132 66.8419 91.0625 67.134C90.5993 69.041 89.8434 70.8647 88.8219 72.5402C88.6662 72.7965 88.5875 73.0922 88.5953 73.392C88.603 73.6918 88.6969 73.983 88.8656 74.2309L90.4281 76.5215L86.4375 80.484L84.1438 78.9215C83.8965 78.754 83.6065 78.6609 83.308 78.6531C83.0095 78.6454 82.715 78.7233 82.4594 78.8777C80.7853 79.8987 78.9624 80.6525 77.0563 81.1121C76.7638 81.1819 76.4976 81.3346 76.2897 81.5519C76.0819 81.7692 75.9411 82.0418 75.8844 82.3371L75.3594 85.0621H74.1094V74.2059C76.9247 73.8411 79.5109 72.4638 81.3848 70.3314C83.2588 68.1989 84.2923 65.4572 84.2923 62.6184C84.2923 59.7795 83.2588 57.0378 81.3848 54.9054C79.5109 52.7729 76.9247 51.3957 74.1094 51.0309V40.1684H75.3594L75.8844 42.8871C75.9415 43.1801 76.0813 43.4505 76.2874 43.6665C76.4934 43.8825 76.7569 44.035 77.0469 44.1059C78.9547 44.5786 80.7804 45.336 82.4625 46.3527C82.718 46.5061 83.0121 46.5831 83.31 46.5748C83.6079 46.5665 83.8972 46.4732 84.1438 46.3059L86.4375 44.7434L90.4156 48.7215L88.8531 51.009C88.6844 51.2569 88.5905 51.5481 88.5828 51.8479C88.575 52.1476 88.6537 52.4433 88.8094 52.6996C89.8309 54.3752 90.5868 56.1989 91.05 58.1059C91.1204 58.3964 91.2726 58.6606 91.4886 58.8672C91.7046 59.0738 91.9754 59.2141 92.2688 59.2715L95 59.7996L95.0125 65.4402Z" fill="black"/>
<path d="M56.9352 10.6621H45.957C45.5426 10.6621 45.1452 10.8267 44.8522 11.1198C44.5592 11.4128 44.3945 11.8102 44.3945 12.2246C44.3945 12.639 44.5592 13.0364 44.8522 13.3295C45.1452 13.6225 45.5426 13.7871 45.957 13.7871H56.9352C57.3496 13.7871 57.747 13.6225 58.04 13.3295C58.333 13.0364 58.4977 12.639 58.4977 12.2246C58.4977 11.8102 58.333 11.4128 58.04 11.1198C57.747 10.8267 57.3496 10.6621 56.9352 10.6621Z" fill="black"/>
<path d="M37.0523 10.6621H34.8867C34.4723 10.6621 34.0749 10.8267 33.7819 11.1198C33.4888 11.4128 33.3242 11.8102 33.3242 12.2246C33.3242 12.639 33.4888 13.0364 33.7819 13.3295C34.0749 13.6225 34.4723 13.7871 34.8867 13.7871H37.0523C37.4667 13.7871 37.8642 13.6225 38.1572 13.3295C38.4502 13.0364 38.6148 12.639 38.6148 12.2246C38.6148 11.8102 38.4502 11.4128 38.1572 11.1198C37.8642 10.8267 37.4667 10.6621 37.0523 10.6621Z" fill="black"/>
<path d="M49.0254 85.9375H42.7754C42.361 85.9375 41.9636 86.1021 41.6705 86.3951C41.3775 86.6882 41.2129 87.0856 41.2129 87.5C41.2129 87.9144 41.3775 88.3118 41.6705 88.6049C41.9636 88.8979 42.361 89.0625 42.7754 89.0625H49.0254C49.4398 89.0625 49.8372 88.8979 50.1302 88.6049C50.4233 88.3118 50.5879 87.9144 50.5879 87.5C50.5879 87.0856 50.4233 86.6882 50.1302 86.3951C49.8372 86.1021 49.4398 85.9375 49.0254 85.9375Z" fill="black"/>
<path d="M33.9094 85.9375H31.4688C31.0543 85.9375 30.6569 86.1021 30.3639 86.3951C30.0709 86.6882 29.9062 87.0856 29.9062 87.5C29.9062 87.9144 30.0709 88.3118 30.3639 88.6049C30.6569 88.8979 31.0543 89.0625 31.4688 89.0625H33.9094C34.3238 89.0625 34.7212 88.8979 35.0142 88.6049C35.3073 88.3118 35.4719 87.9144 35.4719 87.5C35.4719 87.0856 35.3073 86.6882 35.0142 86.3951C34.7212 86.1021 34.3238 85.9375 33.9094 85.9375Z" fill="black"/>
<path d="M60.3469 85.9375H57.9063C57.4918 85.9375 57.0944 86.1021 56.8014 86.3951C56.5084 86.6882 56.3438 87.0856 56.3438 87.5C56.3438 87.9144 56.5084 88.3118 56.8014 88.6049C57.0944 88.8979 57.4918 89.0625 57.9063 89.0625H60.3469C60.7613 89.0625 61.1587 88.8979 61.4517 88.6049C61.7448 88.3118 61.9094 87.9144 61.9094 87.5C61.9094 87.0856 61.7448 86.6882 61.4517 86.3951C61.1587 86.1021 60.7613 85.9375 60.3469 85.9375Z" fill="black"/>
<path d="M32.584 41.5313C32.584 39.5471 31.9956 37.6076 30.8932 35.9579C29.7908 34.3082 28.224 33.0224 26.3908 32.2633C24.5577 31.5041 22.5405 31.3057 20.5946 31.693C18.6486 32.0803 16.8612 33.036 15.4585 34.4392C14.0557 35.8424 13.1006 37.6301 12.7139 39.5762C12.3272 41.5223 12.5262 43.5393 13.286 45.3722C14.0457 47.2051 15.3319 48.7716 16.9819 49.8735C18.632 50.9753 20.5717 51.5631 22.5559 51.5625C25.215 51.5592 27.7643 50.5012 29.6443 48.6206C31.5243 46.74 32.5815 44.1904 32.584 41.5313ZM15.6496 41.5313C15.6496 40.1653 16.0547 38.8301 16.8135 37.6943C17.5724 36.5586 18.651 35.6734 19.913 35.1507C21.1749 34.628 22.5635 34.4912 23.9032 34.7577C25.2429 35.0242 26.4735 35.6819 27.4393 36.6478C28.4052 37.6137 29.0629 38.8442 29.3294 40.1839C29.5959 41.5236 29.4591 42.9122 28.9364 44.1742C28.4137 45.4361 27.5285 46.5147 26.3928 47.2736C25.257 48.0325 23.9218 48.4375 22.5559 48.4375C20.7245 48.4367 18.9683 47.7088 17.6733 46.4138C16.3783 45.1188 15.6504 43.3627 15.6496 41.5313Z" fill="black"/>
</svg>
