<svg width="100" height="100" viewBox="0 0 100 100" fill="none" xmlns="http://www.w3.org/2000/svg">
<g clip-path="url(#clip0_109_769)">
<path d="M49.4786 72.7901C31.5705 72.7901 17 58.2724 17 40.4273C17 22.5822 31.5697 8.06445 49.4786 8.06445C67.3883 8.06445 81.9572 22.5822 81.9572 40.4273C81.9572 58.2724 67.3875 72.7901 49.4786 72.7901ZM49.4786 11.2903C33.348 11.2903 20.2258 24.3612 20.2258 40.4273C20.2258 56.4933 33.348 69.5643 49.4786 69.5643C65.6092 69.5643 78.7314 56.4933 78.7314 40.4273C78.7314 24.3612 65.6076 11.2903 49.4786 11.2903Z" fill="black"/>
<path d="M67.8613 64.2129L82.4665 79.2827L67.8613 64.2129Z" fill="black"/>
<path d="M66.6992 65.3363L69.0154 63.0918L83.6205 78.1616L81.3036 80.4069L66.6992 65.3363Z" fill="black"/>
<path d="M89.6492 91.9357C89.6303 91.9357 89.6122 91.9357 89.5933 91.9357C88.4403 91.9207 87.3645 91.46 86.5635 90.6378L80.2616 84.1712C78.6046 82.4709 78.6392 79.7381 80.338 78.0803L81.5673 76.8809C82.3895 76.0799 83.496 75.6657 84.6293 75.6602C85.7823 75.6751 86.8581 76.1358 87.659 76.9573L93.961 83.4246C95.6188 85.1234 95.5842 87.8569 93.8846 89.5155L92.6545 90.715C91.8464 91.5033 90.7809 91.9357 89.6492 91.9357ZM84.5734 78.886C84.2875 78.886 84.0205 78.9939 83.8189 79.19L82.5904 80.3878C82.1635 80.8052 82.1548 81.492 82.5715 81.9196L88.8742 88.3862C89.0735 88.5909 89.3436 88.7059 89.6334 88.7091C89.9437 88.7154 90.1965 88.6043 90.4013 88.4051L91.6306 87.2064C92.0504 86.7969 92.0591 86.0952 91.6496 85.6762L85.3468 79.2081C85.1475 79.0033 84.8774 78.8891 84.5876 78.886C84.5836 78.886 84.5781 78.886 84.5734 78.886Z" fill="black"/>
<path d="M67.6071 59.7938H32.3942C31.5042 59.7938 30.7812 59.0716 30.7812 58.1809V51.6269C30.7812 44.1105 35.531 37.3116 42.6 34.7111C43.1237 34.5181 43.712 34.6095 44.1515 34.9552C45.8392 36.2783 47.8616 36.9761 50.0006 36.9761C52.1396 36.9761 54.162 36.2783 55.8498 34.9552C56.29 34.6095 56.8767 34.5174 57.4012 34.7111C64.4711 37.3116 69.22 44.1097 69.22 51.6269V58.1809C69.22 59.0716 68.4978 59.7938 67.6071 59.7938ZM34.0071 56.568H65.9942V51.6269C65.9942 45.7376 62.4416 40.3862 57.0713 38.0527C54.9756 39.4616 52.5507 40.2019 50.0006 40.2019C47.4505 40.2019 45.0257 39.4616 42.93 38.0527C37.5597 40.3862 34.0071 45.7376 34.0071 51.6269V56.568Z" fill="black"/>
<path d="M59.1324 58.6522C58.2417 58.6522 57.5195 57.93 57.5195 57.0393V53.3795C57.5195 52.4888 58.2417 51.7666 59.1324 51.7666C60.0224 51.7666 60.7453 52.4888 60.7453 53.3795V57.0393C60.7453 57.93 60.0232 58.6522 59.1324 58.6522Z" fill="black"/>
<path d="M40.8668 58.6522C39.9769 58.6522 39.2539 57.93 39.2539 57.0393V53.3795C39.2539 52.4888 39.9769 51.7666 40.8668 51.7666C41.7575 51.7666 42.4797 52.4888 42.4797 53.3795V57.0393C42.4797 57.93 41.7575 58.6522 40.8668 58.6522Z" fill="black"/>
<path d="M49.9999 40.2024C43.008 40.2024 37.3203 34.5486 37.3203 27.5993C37.3203 20.6507 43.008 14.9961 49.9999 14.9961C56.9917 14.9961 62.6794 20.6507 62.6794 27.5993C62.6794 34.5486 56.9917 40.2024 49.9999 40.2024ZM49.9999 18.2219C44.7871 18.2219 40.5461 22.4282 40.5461 27.5993C40.5461 32.7703 44.7871 36.9766 49.9999 36.9766C55.2127 36.9766 59.4536 32.7703 59.4536 27.5993C59.4536 22.4282 55.2127 18.2219 49.9999 18.2219Z" fill="black"/>
<path d="M15.8839 39.2123C10.0481 39.2123 5.30078 34.5641 5.30078 28.8512C5.30078 23.1384 10.0481 18.4902 15.8839 18.4902C19.4365 18.4902 22.734 20.2244 24.7037 23.1297L22.0339 24.9395C20.6651 22.921 18.3662 21.716 15.8839 21.716C11.8272 21.716 8.52659 24.9174 8.52659 28.8512C8.52659 32.7858 11.8272 35.9865 15.8839 35.9865C16.6888 35.9865 17.4952 35.8534 18.2812 35.5903L19.3058 38.6492C18.1883 39.0232 17.0369 39.2123 15.8839 39.2123Z" fill="black"/>
<path d="M21.1906 54.3583H1.6129C0.722971 54.3583 0 53.6353 0 52.7454V47.768C0 41.6425 3.67786 36.2076 9.37027 33.9205C9.92471 33.6953 10.5626 33.8008 11.021 34.193C12.9773 35.8689 15.7486 36.436 18.2806 35.5894L18.6303 36.6344L20.4566 36.8597L20.3968 37.2913C20.3298 37.9174 19.903 38.4482 19.3052 38.6482C16.0519 39.7382 12.4701 39.1861 9.74751 37.2826C5.75699 39.2468 3.22581 43.2703 3.22581 47.768V51.1325H21.1906V54.3583Z" fill="black"/>
<path d="M84.116 39.2121C82.4732 39.2121 80.8863 38.8435 79.3986 38.1174L80.8146 35.2192C81.8573 35.7279 82.9678 35.9863 84.116 35.9863C88.1727 35.9863 91.4733 32.7857 91.4733 28.8511C91.4733 24.9172 88.1727 21.7159 84.116 21.7159C81.3297 21.7159 78.815 23.2201 77.5518 25.6426L74.6914 24.151C76.5114 20.659 80.1216 18.4893 84.116 18.4893C89.9518 18.4893 94.6991 23.1374 94.6991 28.8503C94.6991 34.5632 89.9518 39.2121 84.116 39.2121Z" fill="black"/>
<path d="M98.3868 54.3582H77.7656V51.1324H96.7739V47.768C96.7739 43.2703 94.2428 39.2467 90.2522 37.2826C88.4645 38.5332 86.3216 39.2121 84.1164 39.2121C83.3722 39.2121 82.6398 39.1365 81.9223 38.986C81.9452 39.4727 81.957 39.9524 81.957 40.4273H78.7312C78.7312 39.2373 78.6493 37.9985 78.4886 36.747C78.3736 35.8634 78.9981 35.0554 79.8818 34.942C80.4 34.8711 80.8977 35.0625 81.2403 35.4114C83.8085 36.4808 86.8823 35.9926 88.9796 34.1938C89.4371 33.8016 90.075 33.6961 90.6303 33.9221C96.3219 36.2076 99.9998 41.6432 99.9998 47.768V52.7453C99.9998 53.6361 99.2768 54.3582 98.3868 54.3582Z" fill="black"/>
</g>
<defs>
<clipPath id="clip0_109_769">
<rect width="100" height="100" fill="white"/>
</clipPath>
</defs>
</svg>
