<svg width="100" height="100" viewBox="0 0 100 100" fill="none" xmlns="http://www.w3.org/2000/svg">
<path d="M54.6875 46.875C57.2656 46.875 59.375 44.7656 59.375 42.1875V7.8125C59.375 5.23438 57.2656 3.125 54.6875 3.125H7.8125C5.23438 3.125 3.125 5.23438 3.125 7.8125V42.1875C3.125 44.7656 5.23438 46.875 7.8125 46.875H54.6875ZM6.25 7.8125C6.25 6.95312 6.95312 6.25 7.8125 6.25H54.6875C55.5469 6.25 56.25 6.95312 56.25 7.8125V17.1875H6.25V7.8125ZM6.25 42.1875V20.3125H56.25V42.1875C56.25 43.0469 55.5469 43.75 54.6875 43.75H7.8125C6.95312 43.75 6.25 43.0469 6.25 42.1875Z" fill="black"/>
<path d="M64.0625 28.125H76.5625C80.875 28.125 84.375 31.625 84.375 35.9375V44.6719L80.7969 41.0937C80.1875 40.4844 79.2031 40.4844 78.5937 41.0937C77.9844 41.7031 77.9844 42.6875 78.5937 43.2969L84.8437 49.5469C85.1562 49.8594 85.5469 50 85.9531 50C86.3594 50 86.75 49.8437 87.0625 49.5469L93.3125 43.2969C93.9219 42.6875 93.9219 41.7031 93.3125 41.0937C92.7031 40.4844 91.7188 40.4844 91.1094 41.0937L87.5312 44.6719V35.9375C87.5312 29.9062 82.625 25 76.5938 25H64.0938C63.2344 25 62.5312 25.7031 62.5312 26.5625C62.5312 27.4219 63.2344 28.125 64.0938 28.125H64.0625Z" fill="black"/>
<path d="M35.7812 71.7188H23.2812C18.9687 71.7188 15.4688 68.2188 15.4688 63.9063V55.1719L19.0469 58.75C19.3594 59.0625 19.75 59.2031 20.1562 59.2031C20.5625 59.2031 20.9531 59.0469 21.2656 58.75C21.875 58.1406 21.875 57.1562 21.2656 56.5469L15.0156 50.2969C14.4062 49.6875 13.4219 49.6875 12.8125 50.2969L6.5625 56.5469C5.95312 57.1562 5.95312 58.1406 6.5625 58.75C7.17188 59.3594 8.15625 59.3594 8.76563 58.75L12.3438 55.1719V63.9063C12.3438 69.9375 17.25 74.8438 23.2812 74.8438H35.7812C36.6406 74.8438 37.3438 74.1406 37.3438 73.2813C37.3438 72.4219 36.6406 71.7188 35.7812 71.7188Z" fill="black"/>
<path d="M50.7812 14.0625C52.0757 14.0625 53.125 13.0132 53.125 11.7188C53.125 10.4243 52.0757 9.375 50.7812 9.375C49.4868 9.375 48.4375 10.4243 48.4375 11.7188C48.4375 13.0132 49.4868 14.0625 50.7812 14.0625Z" fill="black"/>
<path d="M42.9688 14.0625C44.2632 14.0625 45.3125 13.0132 45.3125 11.7188C45.3125 10.4243 44.2632 9.375 42.9688 9.375C41.6743 9.375 40.625 10.4243 40.625 11.7188C40.625 13.0132 41.6743 14.0625 42.9688 14.0625Z" fill="black"/>
<path d="M92.1875 53.125H45.3125C42.7344 53.125 40.625 55.2344 40.625 57.8125V92.1875C40.625 94.7656 42.7344 96.875 45.3125 96.875H92.1875C94.7656 96.875 96.875 94.7656 96.875 92.1875V57.8125C96.875 55.2344 94.7656 53.125 92.1875 53.125ZM43.75 57.8125C43.75 56.9531 44.4531 56.25 45.3125 56.25H92.1875C93.0469 56.25 93.75 56.9531 93.75 57.8125V67.1875H43.75V57.8125ZM92.1875 93.75H45.3125C44.4531 93.75 43.75 93.0469 43.75 92.1875V70.3125H93.75V92.1875C93.75 93.0469 93.0469 93.75 92.1875 93.75Z" fill="black"/>
<path d="M88.2812 64.0625C89.5757 64.0625 90.625 63.0132 90.625 61.7188C90.625 60.4243 89.5757 59.375 88.2812 59.375C86.9868 59.375 85.9375 60.4243 85.9375 61.7188C85.9375 63.0132 86.9868 64.0625 88.2812 64.0625Z" fill="black"/>
<path d="M80.4688 64.0625C81.7632 64.0625 82.8125 63.0132 82.8125 61.7188C82.8125 60.4243 81.7632 59.375 80.4688 59.375C79.1743 59.375 78.125 60.4243 78.125 61.7188C78.125 63.0132 79.1743 64.0625 80.4688 64.0625Z" fill="black"/>
</svg>
