<svg width="100" height="100" viewBox="0 0 100 100" fill="none" xmlns="http://www.w3.org/2000/svg">
<path d="M85.9375 70.3219V64.0625C85.935 61.9913 85.1111 60.0056 83.6465 58.541C82.1819 57.0764 80.1962 56.2525 78.125 56.25H64.9719C66.4181 53.5821 67.5847 50.7718 68.4531 47.8641L74.3906 43.1125C75.3135 42.3757 75.9882 41.3735 76.3237 40.2412C76.6591 39.1089 76.6391 37.9009 76.2664 36.7803C75.8937 35.6597 75.1863 34.6804 74.2395 33.9745C73.2927 33.2686 72.1522 32.8701 70.9719 32.8328L74.4531 23.2609C75.3414 20.8181 75.6278 18.1972 75.288 15.6203C74.9482 13.0433 73.9922 10.5862 72.5011 8.45715C71.01 6.32811 69.0277 4.58985 66.7221 3.38966C64.4165 2.18948 61.8555 1.56272 59.2562 1.5625H45.9906C36.0645 1.56003 26.3379 4.34959 17.9219 9.6125C17.669 9.76914 17.4661 9.9947 17.337 10.2627C17.2079 10.5306 17.158 10.8299 17.1931 11.1253C17.2282 11.4206 17.3469 11.6998 17.5352 11.9301C17.7236 12.1603 17.9737 12.332 18.2563 12.425L22.0234 13.675C22.5419 13.848 23.0196 14.125 23.4272 14.4892C23.8348 14.8534 24.1637 15.297 24.3937 15.7929C24.6237 16.2887 24.7499 16.8263 24.7647 17.3727C24.7795 17.9191 24.6825 18.4628 24.4797 18.9703C24.1053 19.906 23.9333 20.9104 23.9751 21.9173C24.0168 22.9243 24.2713 23.911 24.7219 24.8125L28.75 32.8609C27.5976 32.9527 26.4995 33.3888 25.5982 34.1126C24.6969 34.8365 24.034 35.8146 23.6957 36.92C23.3574 38.0253 23.3593 39.2069 23.7011 40.3112C24.0429 41.4155 24.7089 42.3915 25.6125 43.1125L31.55 47.8641C32.4174 50.7717 33.583 53.582 35.0281 56.25H21.875C19.8038 56.2525 17.8181 57.0764 16.3535 58.541C14.8889 60.0056 14.065 61.9913 14.0625 64.0625V70.3219C10.3644 71.8667 7.20517 74.4696 4.98129 77.8038C2.75741 81.1379 1.56804 85.0547 1.5625 89.0625V96.875C1.5625 97.2894 1.72712 97.6868 2.02015 97.9799C2.31317 98.2729 2.7106 98.4375 3.125 98.4375H96.875C97.2894 98.4375 97.6868 98.2729 97.9799 97.9799C98.2729 97.6868 98.4375 97.2894 98.4375 96.875V89.0625C98.432 85.0547 97.2426 81.1379 95.0187 77.8038C92.7948 74.4696 89.6356 71.8667 85.9375 70.3219ZM62.5 32.8125H53.125C52.7106 32.8125 52.3132 32.9771 52.0201 33.2701C51.7271 33.5632 51.5625 33.9606 51.5625 34.375V35.9375H48.4375V34.375C48.4375 33.9606 48.2729 33.5632 47.9799 33.2701C47.6868 32.9771 47.2894 32.8125 46.875 32.8125H32.8125V30.5234L42.5656 24.0219C44.6644 22.6198 47.1322 21.8726 49.6562 21.875C53.2673 21.8708 56.7701 20.6419 59.5922 18.3891L62.1453 16.3469L64.825 20.3688C66.3678 22.6773 67.1901 25.3921 67.1875 28.1688V32.8125H62.5ZM60.9375 35.9375V40.625C60.9375 41.0394 60.7729 41.4368 60.4799 41.7299C60.1868 42.0229 59.7894 42.1875 59.375 42.1875H56.25C55.8356 42.1875 55.4382 42.0229 55.1451 41.7299C54.8521 41.4368 54.6875 41.0394 54.6875 40.625V35.9375H60.9375ZM45.3125 35.9375V40.625C45.3125 41.0394 45.1479 41.4368 44.8549 41.7299C44.5618 42.0229 44.1644 42.1875 43.75 42.1875H40.625C40.2106 42.1875 39.8132 42.0229 39.5201 41.7299C39.2271 41.4368 39.0625 41.0394 39.0625 40.625V35.9375H45.3125ZM73.4375 38.5938C73.4383 38.9924 73.3491 39.386 73.1765 39.7453C73.0038 40.1046 72.7523 40.4203 72.4406 40.6688L69.6078 42.9344C70.0208 40.624 70.248 38.2842 70.2875 35.9375H70.7812C71.1301 35.9375 71.4755 36.0062 71.7978 36.1397C72.12 36.2732 72.4128 36.4688 72.6595 36.7155C72.9062 36.9622 73.1018 37.255 73.2353 37.5773C73.3688 37.8995 73.4375 38.2449 73.4375 38.5938ZM27.3797 20.1313C27.7407 19.2285 27.9134 18.2615 27.8873 17.2895C27.8612 16.3176 27.6368 15.3613 27.2279 14.4792C26.819 13.5971 26.2341 12.8078 25.5092 12.1598C24.7844 11.5119 23.9347 11.0188 23.0125 10.7109L22.5344 10.5547C29.7522 6.70121 37.8085 4.68606 45.9906 4.6875H59.2562C61.3526 4.68789 63.4181 5.19346 65.2776 6.16138C67.1372 7.1293 68.7362 8.53107 69.9391 10.248C71.142 11.9649 71.9135 13.9465 72.1882 16.0248C72.4629 18.1031 72.2327 20.217 71.5172 22.1875L70.1594 25.9219C69.82 23.3129 68.8843 20.8172 67.425 18.6281L63.8 13.1891C63.6797 13.0089 63.5233 12.8557 63.3406 12.7393C63.158 12.6228 62.9531 12.5456 62.7391 12.5125C62.5251 12.4802 62.3068 12.4922 62.0976 12.5479C61.8885 12.6035 61.6931 12.7016 61.5234 12.8359L57.6406 15.95C55.3721 17.7589 52.5577 18.7459 49.6562 18.75C46.5149 18.7471 43.4435 19.6771 40.8312 21.4219L30.3828 28.3875C30.2859 28.4533 30.1968 28.5298 30.1172 28.6156L27.5172 23.4141C27.2638 22.9076 27.1206 22.3532 27.0969 21.7874C27.0732 21.2216 27.1696 20.6571 27.3797 20.1313ZM27.5609 40.6719C27.1297 40.3285 26.8159 39.8595 26.6631 39.3299C26.5104 38.8002 26.5262 38.2362 26.7083 37.7159C26.8905 37.1956 27.2301 36.7449 27.6799 36.4263C28.1297 36.1076 28.6675 35.9368 29.2188 35.9375H29.7094C29.7487 38.2852 29.976 40.6261 30.3891 42.9375L27.5609 40.6719ZM32.8375 35.9375H35.9375V40.625C35.9375 41.8682 36.4314 43.0605 37.3104 43.9396C38.1895 44.8186 39.3818 45.3125 40.625 45.3125H43.75C44.9932 45.3125 46.1855 44.8186 47.0646 43.9396C47.9436 43.0605 48.4375 41.8682 48.4375 40.625V39.0625H51.5625V40.625C51.5625 41.8682 52.0564 43.0605 52.9354 43.9396C53.8145 44.8186 55.0068 45.3125 56.25 45.3125H59.375C60.6182 45.3125 61.8105 44.8186 62.6896 43.9396C63.5686 43.0605 64.0625 41.8682 64.0625 40.625V35.9375H67.1625C67.0412 43.0992 65.0417 50.1035 61.3641 56.25H38.6359C34.9583 50.1035 32.9588 43.0992 32.8375 35.9375ZM21.875 59.375H78.125C79.3682 59.375 80.5605 59.8689 81.4396 60.7479C82.3186 61.627 82.8125 62.8193 82.8125 64.0625V95.3125H17.1875V64.0625C17.1875 62.8193 17.6814 61.627 18.5604 60.7479C19.4395 59.8689 20.6318 59.375 21.875 59.375ZM4.6875 89.0625C4.69174 85.8965 5.56913 82.7929 7.22314 80.0933C8.87716 77.3937 11.2437 75.2026 14.0625 73.7609V95.3125H4.6875V89.0625ZM95.3125 95.3125H85.9375V73.7609C88.7562 75.2027 91.1226 77.3939 92.7766 80.0935C94.4306 82.7931 95.3081 85.8965 95.3125 89.0625V95.3125Z" fill="black"/>
<path d="M50 90.625C51.2361 90.625 52.4445 90.2584 53.4723 89.5717C54.5001 88.8849 55.3012 87.9088 55.7742 86.7668C56.2473 85.6247 56.3711 84.3681 56.1299 83.1557C55.8888 81.9433 55.2935 80.8297 54.4194 79.9556C53.5453 79.0815 52.4317 78.4863 51.2193 78.2451C50.0069 78.0039 48.7503 78.1277 47.6082 78.6008C46.4662 79.0738 45.4901 79.8749 44.8033 80.9027C44.1166 81.9305 43.75 83.1389 43.75 84.375C43.75 86.0326 44.4085 87.6223 45.5806 88.7944C46.7527 89.9665 48.3424 90.625 50 90.625ZM50 81.25C50.6181 81.25 51.2223 81.4333 51.7362 81.7767C52.2501 82.12 52.6506 82.6081 52.8871 83.1791C53.1236 83.7501 53.1855 84.3785 53.065 84.9847C52.9444 85.5909 52.6468 86.1477 52.2097 86.5847C51.7727 87.0218 51.2159 87.3194 50.6097 87.44C50.0035 87.5605 49.3751 87.4987 48.8041 87.2621C48.2331 87.0256 47.745 86.6251 47.4017 86.1112C47.0583 85.5973 46.875 84.9931 46.875 84.375C46.875 83.5462 47.2042 82.7513 47.7903 82.1653C48.3763 81.5792 49.1712 81.25 50 81.25Z" fill="black"/>
<path d="M39.52 76.1049L41.7294 73.8955L36.584 68.7502L41.7294 63.6049L39.52 61.3955L33.27 67.6455C32.9771 67.9385 32.8125 68.3359 32.8125 68.7502C32.8125 69.1645 32.9771 69.5619 33.27 69.8549L39.52 76.1049Z" fill="black"/>
<path d="M60.4789 76.1049L66.7289 69.8549C67.0218 69.5619 67.1864 69.1645 67.1864 68.7502C67.1864 68.3359 67.0218 67.9385 66.7289 67.6455L60.4789 61.3955L58.2695 63.6049L63.4148 68.7502L58.2695 73.8955L60.4789 76.1049Z" fill="black"/>
<path d="M53.438 61.5624L44.0605 74.0605L46.5602 75.936L55.9376 63.4378L53.438 61.5624Z" fill="black"/>
</svg>
