<svg width="100" height="100" viewBox="0 0 100 100" fill="none" xmlns="http://www.w3.org/2000/svg">
<path d="M25.8871 50.6189C24.8881 51.1184 24.2676 52.1225 24.2676 53.2395V58.8957C24.2676 60.0125 24.8881 61.0166 25.8871 61.5162L29.166 63.1484C29.4719 64.0486 29.8404 64.9377 30.2582 65.7818L29.0971 69.2652C28.7439 70.3248 29.015 71.4736 29.8049 72.2633L33.8045 76.2629C34.5941 77.0527 35.7432 77.3236 36.8025 76.9707L40.2771 75.8063C41.1303 76.2271 42.0191 76.5957 42.9102 76.8975L44.5516 80.1805C45.051 81.1795 46.0551 81.8 47.1721 81.8H52.8283C53.9451 81.8 54.9492 81.1795 55.4488 80.1805L57.0811 76.9016C57.9813 76.5957 58.8703 76.2271 59.7145 75.8094L63.1979 76.9705C64.258 77.3238 65.4064 77.0525 66.1959 76.2627L70.1955 72.2631C70.9852 71.4734 71.2564 70.3246 70.9033 69.265L69.7389 65.7904C70.1598 64.9373 70.5283 64.0484 70.8301 63.1574L74.1131 61.516C75.1121 61.0166 75.7326 60.0125 75.7326 58.8955V53.2393C75.7326 52.1225 75.1121 51.1184 74.1131 50.6188L70.8342 48.9865C70.5283 48.0863 70.1598 47.1973 69.742 46.3531L70.9031 42.8697C71.2562 41.8102 70.9852 40.6613 70.1953 39.8717C69.6232 39.2996 68.6957 39.2996 68.1238 39.8717C67.5518 40.4438 67.5518 41.3713 68.1238 41.9434L66.9625 45.4271C66.7174 46.1633 66.7703 46.9496 67.1115 47.641C67.4762 48.3797 67.7951 49.1496 68.0602 49.9291C68.308 50.6584 68.8262 51.251 69.5197 51.5977L72.8027 53.2393V58.8955L69.5195 60.5369C68.8262 60.8836 68.3078 61.4764 68.06 62.2057C67.7951 62.9852 67.476 63.7551 67.1115 64.4936C66.7701 65.1852 66.7172 65.9713 66.9625 66.7078L68.1238 70.1914L64.124 74.191L60.6402 73.0297C59.9041 72.7846 59.1178 72.8373 58.4264 73.1787C57.6877 73.5434 56.9178 73.8623 56.1383 74.1273C55.409 74.3752 54.8164 74.8934 54.4697 75.5869L52.8281 78.8699H47.1719L45.5305 75.5867C45.1838 74.8934 44.591 74.375 43.8617 74.1272C43.0822 73.8623 42.3123 73.5432 41.5738 73.1787C40.882 72.8373 40.0961 72.7844 39.3596 73.0297L35.876 74.191L31.8764 70.1912L33.0377 66.7074C33.2828 65.9713 33.2299 65.185 32.8887 64.4936C32.524 63.7549 32.2051 62.985 31.94 62.2055C31.6922 61.4762 31.174 60.8836 30.4805 60.5369L27.1975 58.8953V53.2391L30.4807 51.5977C31.174 51.251 31.6924 50.6582 31.9402 49.9289C32.2051 49.1494 32.5242 48.3795 32.8887 47.641C33.2301 46.9494 33.283 46.1633 33.0377 45.4268L31.8764 41.9432L35.8762 37.9436L39.36 39.1049C40.0959 39.3498 40.8822 39.2971 41.5738 38.9559C42.3125 38.5912 43.0824 38.2723 43.8619 38.0072C44.5912 37.7594 45.1838 37.2412 45.5305 36.5477L47.1721 33.2646H52.8283L54.4697 36.5479C54.8164 37.2412 55.4092 37.7596 56.1385 38.0074C56.918 38.2723 57.6879 38.5914 58.4264 38.9559C59.118 39.2973 59.9043 39.3502 60.6406 39.1049L64.1244 37.9436C64.9303 37.877 65.5299 37.1701 65.4639 36.3641C65.3979 35.558 64.6928 34.9574 63.8842 35.0238C63.6512 35.043 63.4201 35.0902 63.1977 35.1645L59.723 36.3287C58.8699 35.9078 57.9811 35.5393 57.09 35.2375L55.4486 31.9545C54.9492 30.9555 53.9451 30.335 52.8281 30.335H47.1719C46.0551 30.335 45.051 30.9555 44.5514 31.9545L42.9191 35.2334C42.0189 35.5393 41.1299 35.9078 40.2857 36.3256L36.8023 35.1645C35.7428 34.8113 34.5939 35.0826 33.8043 35.8723L29.8047 39.8717C29.015 40.6613 28.7437 41.8102 29.0969 42.8697L30.2613 46.3443C29.8404 47.1975 29.4719 48.0863 29.1701 48.9773L25.8871 50.6189Z" fill="black"/>
<path d="M41.9345 48.9642C41.3625 48.3921 40.4349 48.3921 39.863 48.9642L33.7962 55.031C33.2242 55.6031 33.2242 56.5306 33.7962 57.1025L39.863 63.1693C40.4351 63.7414 41.3626 63.7414 41.9345 63.1693C42.5066 62.5972 42.5066 61.6697 41.9345 61.0978L36.9035 56.0667L41.9345 51.0357C42.5068 50.4638 42.5068 49.5361 41.9345 48.9642Z" fill="black"/>
<path d="M58.064 63.1693C58.636 63.7414 59.5636 63.7414 60.1355 63.1693L66.2023 57.1025C66.7743 56.5304 66.7743 55.6029 66.2023 55.031L60.1355 48.9642C59.5634 48.3921 58.6358 48.3921 58.064 48.9642C57.4919 49.5363 57.4919 50.4638 58.064 51.0357L63.095 56.0667L58.064 61.0978C57.4917 61.6697 57.4917 62.5974 58.064 63.1693Z" fill="black"/>
<path d="M53.689 48.6903C52.9652 48.3282 52.0855 48.6217 51.7238 49.3453L45.657 61.4791C45.2951 62.2028 45.5884 63.0827 46.3121 63.4444C47.0357 63.8063 47.9156 63.5127 48.2773 62.7893L54.3441 50.6555C54.706 49.9319 54.4126 49.052 53.689 48.6903Z" fill="black"/>
<path d="M93.6523 9.10059H17.7057C16.8967 9.10059 16.2408 9.75645 16.2408 10.5654C16.2408 11.3744 16.8967 12.0303 17.7057 12.0303H93.6523C95.5369 12.0303 97.0703 13.5637 97.0703 15.4482V21.2344H2.92969V15.4482C2.92969 13.5637 4.46309 12.0303 6.34766 12.0303H10.8697C11.6787 12.0303 12.3346 11.3744 12.3346 10.5654C12.3346 9.75645 11.6787 9.10059 10.8697 9.10059H6.34766C2.84766 9.10059 0 11.9482 0 15.4482V84.5522C0 88.0522 2.84766 90.8998 6.34766 90.8998H17.8449C18.6539 90.8998 19.3098 90.2439 19.3098 89.435C19.3098 88.626 18.6539 87.9701 17.8449 87.9701H6.34766C4.46309 87.9701 2.92969 86.4367 2.92969 84.5522V24.1641H97.0703V84.5523C97.0703 86.4369 95.5369 87.9703 93.6523 87.9703H24.6809C23.8719 87.9703 23.216 88.6262 23.216 89.4352C23.216 90.2441 23.8719 90.9 24.6809 90.9H93.6523C97.1523 90.9 100 88.0523 100 84.5523V15.4482C100 11.948 97.1523 9.10059 93.6523 9.10059Z" fill="black"/>
<path d="M92.4688 18.0967C93.2778 18.0967 93.9336 17.4408 93.9336 16.6318C93.9336 15.8228 93.2778 15.167 92.4688 15.167C91.6597 15.167 91.0039 15.8228 91.0039 16.6318C91.0039 17.4408 91.6597 18.0967 92.4688 18.0967Z" fill="black"/>
<path d="M86.4023 18.0967C87.2114 18.0967 87.8672 17.4408 87.8672 16.6318C87.8672 15.8228 87.2114 15.167 86.4023 15.167C85.5933 15.167 84.9375 15.8228 84.9375 16.6318C84.9375 17.4408 85.5933 18.0967 86.4023 18.0967Z" fill="black"/>
<path d="M80.334 18.0967C81.143 18.0967 81.7988 17.4408 81.7988 16.6318C81.7988 15.8228 81.143 15.167 80.334 15.167C79.525 15.167 78.8691 15.8228 78.8691 16.6318C78.8691 17.4408 79.525 18.0967 80.334 18.0967Z" fill="black"/>
</svg>
