<svg width="100" height="100" viewBox="0 0 100 100" fill="none" xmlns="http://www.w3.org/2000/svg">
<path d="M87.1285 48.8475H84.4094V45.0725C82.5229 -0.567131 17.4775 -0.569804 15.5906 45.0727V48.8475H12.8715C11.1161 48.8492 9.43296 49.5473 8.19157 50.7885C6.95018 52.0298 6.25192 53.7128 6.25 55.4683V63.5921C6.25186 65.3477 6.95005 67.0309 8.19141 68.2724C9.43277 69.5139 11.1159 70.2123 12.8715 70.2144H15.5906V77.8606C15.593 80.0322 16.4568 82.1142 17.9923 83.6497C19.5279 85.1853 21.6099 86.0491 23.7815 86.0515H37.7271C38.0234 87.0006 38.6144 87.8306 39.4144 88.4211C40.2144 89.0115 41.1817 89.3317 42.176 89.3352H48.7663C54.9949 89.1978 54.9913 79.7748 48.7662 79.6413H42.1761C41.1815 79.6447 40.2139 79.9651 39.4138 80.5558C38.6137 81.1466 38.0228 81.977 37.7267 82.9265H23.7816C22.4385 82.925 21.1508 82.3908 20.201 81.4411C19.2513 80.4914 18.7171 79.2037 18.7156 77.8606V74.3196C23.0575 77.1038 29.4477 74.1032 29.3501 68.7204L29.3502 50.3413C29.3455 49.4288 29.1536 48.527 28.7864 47.6916C28.4193 46.8562 27.8846 46.105 27.2156 45.4845C26.5466 44.8639 25.7574 44.3872 24.8968 44.0838C24.0361 43.7804 23.1225 43.6568 22.2122 43.7206C20.9803 43.7246 19.7745 44.0755 18.7328 44.733C18.8179 36.4964 22.1497 28.6261 28.0041 22.8318C33.8586 17.0376 41.7629 13.7874 49.9999 13.7874C58.2369 13.7874 66.1413 17.0375 71.9957 22.8318C77.8502 28.626 81.182 36.4963 81.2672 44.7329C80.2254 44.0755 79.0196 43.7246 77.7878 43.7206C76.8775 43.6568 75.9638 43.7804 75.1032 44.0838C74.2426 44.3872 73.4533 44.8639 72.7843 45.4844C72.1153 46.105 71.5806 46.8562 71.2135 47.6916C70.8463 48.527 70.6544 49.4288 70.6497 50.3413V68.7206C70.7166 70.3718 71.3735 71.9444 72.501 73.1526C73.6285 74.3609 75.152 75.1247 76.7947 75.3055C78.4374 75.4863 80.0905 75.072 81.4538 74.1378C82.817 73.2036 83.8001 71.8115 84.2245 70.2143L87.1284 70.2144C88.8841 70.2123 90.5672 69.514 91.8086 68.2724C93.0499 67.0309 93.7481 65.3477 93.75 63.5921V55.4683C93.7481 53.7128 93.0498 52.0298 91.8084 50.7885C90.567 49.5473 88.8839 48.8492 87.1285 48.8475ZM15.5906 67.0894H12.8715C11.9444 67.0883 11.0556 66.7194 10.4001 66.0638C9.74456 65.4081 9.37591 64.5192 9.375 63.5921V55.4683C9.37623 54.5414 9.74503 53.6528 10.4005 52.9975C11.056 52.3421 11.9447 51.9735 12.8715 51.9725H15.5906V67.0894ZM42.1761 82.7663H48.7663C48.9981 82.7714 49.2261 82.8262 49.4349 82.927C49.6437 83.0279 49.8284 83.1724 49.9765 83.3507C50.1246 83.5291 50.2327 83.7372 50.2935 83.9609C50.3543 84.1847 50.3663 84.4189 50.3287 84.6477C50.3284 85.0619 50.1636 85.4591 49.8707 85.7521C49.5778 86.045 49.1806 86.2098 48.7663 86.2102H42.1761C41.9443 86.205 41.7163 86.1502 41.5075 86.0494C41.2987 85.9485 41.114 85.804 40.9659 85.6257C40.8178 85.4473 40.7097 85.2392 40.6489 85.0155C40.5881 84.7917 40.576 84.5576 40.6136 84.3288C40.614 83.9145 40.7787 83.5173 41.0717 83.2244C41.3646 82.9314 41.7618 82.7667 42.1761 82.7663ZM22.2122 46.8456C22.7106 46.7834 23.2165 46.8271 23.6969 46.9737C24.1773 47.1203 24.6213 47.3666 25 47.6965C25.3788 48.0264 25.6836 48.4325 25.8948 48.8883C26.1059 49.344 26.2185 49.8391 26.2253 50.3413V68.7206C26.1857 73.3855 18.7562 73.3917 18.7156 68.7204C18.7037 68.6941 18.7242 50.4523 18.7156 50.41C18.7074 49.9454 18.7918 49.4837 18.9637 49.052C19.1357 48.6203 19.3919 48.2271 19.7173 47.8954C20.0427 47.5636 20.4309 47.3 20.8592 47.1197C21.2876 46.9395 21.7475 46.8463 22.2122 46.8456ZM81.2843 68.7206C81.2776 69.2228 81.1649 69.7179 80.9538 70.1736C80.7427 70.6294 80.4378 71.0354 80.0591 71.3653C79.6804 71.6952 79.2363 71.9415 78.7559 72.0882C78.2756 72.2348 77.7697 72.2784 77.2713 72.2162C76.3444 72.2153 75.4557 71.8467 74.8002 71.1913C74.1447 70.536 73.7759 69.6474 73.7747 68.7206V50.3413C73.7759 49.4144 74.1448 48.5259 74.8002 47.8705C75.4557 47.2152 76.3444 46.8466 77.2713 46.8456C77.7754 46.7827 78.2871 46.8282 78.7722 46.9789C79.2574 47.1296 79.7048 47.382 80.0846 47.7194C80.4645 48.0568 80.768 48.4713 80.9748 48.9352C81.1817 49.3992 81.2873 49.902 81.2844 50.41C81.2844 50.41 81.2956 68.6546 81.2843 68.7206ZM90.625 63.5921C90.6241 64.5192 90.2554 65.4081 89.5999 66.0638C88.9444 66.7194 88.0556 67.0883 87.1285 67.0894H84.4094C84.4144 63.4192 84.4057 55.5855 84.4094 51.9725H87.1285C88.0554 51.9735 88.944 52.3422 89.5995 52.9975C90.255 53.6528 90.6238 54.5414 90.625 55.4683V63.5921Z" fill="black"/>
<path d="M50.0004 31.6914C47.0293 31.6886 44.1248 32.5716 41.658 34.2275C39.1911 35.8833 37.2738 38.237 36.1511 40.9878C35.0283 43.7386 34.751 46.7616 35.3546 49.6707C35.9582 52.5799 37.4153 55.243 39.5397 57.3201V66.071C39.5445 66.3769 39.6383 66.6747 39.8097 66.9281C39.9811 67.1815 40.2227 67.3794 40.5048 67.4976C40.787 67.6158 41.0975 67.6492 41.3983 67.5936C41.6992 67.538 41.9773 67.396 42.1986 67.1848L48.0061 61.4689C50.0361 61.7423 52.1006 61.5958 54.0717 61.0384C56.0427 60.481 57.8783 59.5247 59.4645 58.2287C61.0507 56.9328 62.3538 55.3248 63.293 53.5044C64.2322 51.6841 64.7875 49.6902 64.9243 47.6465C65.0612 45.6027 64.7768 43.5526 64.0888 41.6233C63.4007 39.694 62.3236 37.9266 60.9244 36.4307C59.5252 34.9347 57.8335 33.7422 55.9544 32.9269C54.0753 32.1117 52.0487 31.6912 50.0004 31.6914ZM47.7703 58.2631C47.5217 58.216 47.2654 58.2297 47.0233 58.3031C46.7811 58.3764 46.5602 58.5072 46.3795 58.6842L42.6647 62.3402V56.6426C42.6648 56.4224 42.6183 56.2047 42.5282 56.0038C42.4382 55.8029 42.3066 55.6233 42.1421 55.4768C40.8956 54.3682 39.8972 53.0088 39.2124 51.4876C38.5275 49.9665 38.1716 48.3178 38.168 46.6496C38.7212 30.9921 61.2789 30.9891 61.8328 46.6498C61.8344 48.3929 61.4503 50.1147 60.7081 51.6919C59.966 53.2691 58.8841 54.6626 57.5401 55.7726C56.1961 56.8825 54.6232 57.6814 52.9341 58.1119C51.2451 58.5425 49.4817 58.5941 47.7703 58.2631Z" fill="black"/>
<path d="M44.3682 45.2832C43.9374 45.2895 43.5263 45.465 43.2239 45.7718C42.9215 46.0787 42.7519 46.4922 42.752 46.9231C42.752 47.3539 42.9215 47.7675 43.224 48.0743C43.5264 48.3812 43.9375 48.5567 44.3683 48.5629C44.7991 48.5566 45.2101 48.3811 45.5125 48.0743C45.815 47.7674 45.9845 47.3538 45.9845 46.923C45.9845 46.4922 45.8149 46.0786 45.5125 45.7718C45.21 45.4649 44.799 45.2894 44.3682 45.2832Z" fill="black"/>
<path d="M49.999 45.2832C49.5682 45.2895 49.1572 45.465 48.8548 45.7718C48.5523 46.0787 48.3828 46.4922 48.3828 46.9231C48.3828 47.3539 48.5524 47.7675 48.8548 48.0743C49.1573 48.3812 49.5683 48.5567 49.9991 48.5629C50.4299 48.5566 50.841 48.3811 51.1434 48.0743C51.4458 47.7674 51.6154 47.3538 51.6154 46.923C51.6153 46.4922 51.4458 46.0786 51.1433 45.7718C50.8409 45.4649 50.4298 45.2894 49.999 45.2832Z" fill="black"/>
<path d="M55.6319 45.2832C55.2011 45.2895 54.79 45.465 54.4876 45.7718C54.1851 46.0787 54.0156 46.4922 54.0156 46.9231C54.0156 47.3539 54.1852 47.7675 54.4876 48.0743C54.7901 48.3812 55.2011 48.5567 55.6319 48.5629C56.0627 48.5566 56.4738 48.3811 56.7762 48.0743C57.0787 47.7674 57.2482 47.3538 57.2482 46.923C57.2482 46.4922 57.0786 46.0786 56.7762 45.7718C56.4737 45.4649 56.0627 45.2894 55.6319 45.2832Z" fill="black"/>
</svg>
