<svg width="100" height="100" viewBox="0 0 100 100" fill="none" xmlns="http://www.w3.org/2000/svg">
<g clip-path="url(#clip0_108_203)">
<path d="M98.7956 55.8875L95.4622 55.0125L97.1706 52.0542C97.5581 51.425 97.4539 50.6083 96.9206 50.0958L88.9622 42.1375C88.4497 41.6042 87.6331 41.5 87.0039 41.8875L84.0456 43.5958L83.1706 40.2625C82.9664 39.5542 82.3247 39.0625 81.5872 39.0542H79.0456V24.3333V8.08333C79.0498 3.625 75.4372 0.00416667 70.9789 0H70.9706H29.0372C27.2164 0.00833333 25.4497 0.6375 24.0372 1.78333C22.1039 3.29583 20.9747 5.60833 20.9622 8.0625V12.9167H18.4206C17.6831 12.925 17.0414 13.4167 16.8372 14.125L15.9622 17.4583L13.0039 15.75C12.3747 15.3625 11.5581 15.4667 11.0456 16L3.08724 23.9458C2.55391 24.4583 2.44974 25.275 2.83724 25.9042L4.54557 28.8625L1.21224 29.7375C0.883073 29.8375 0.591406 30.0375 0.378906 30.3083C0.141406 30.5917 0.00807292 30.95 0.00390625 31.3208V42.5708C0.00807292 43.3 0.503906 43.9333 1.21224 44.1125H1.25807L4.54557 45.0167L2.83724 47.975C2.77057 48.1375 2.73307 48.3125 2.72474 48.4917C2.58724 49.0042 2.72474 49.55 3.08724 49.9333L3.71224 50.5542L11.0456 57.9167C11.5664 58.4292 12.3706 58.5333 13.0039 58.1667L15.9622 56.4583L16.8372 59.75C17.0414 60.4583 17.6831 60.95 18.4206 60.9583H20.9706V91.95C20.9831 96.3958 24.5872 99.9958 29.0372 100H70.9706C71.8206 99.9875 72.6664 99.8417 73.4706 99.5625C76.7789 98.4875 79.0206 95.4125 79.0331 91.9375V87.0833H81.5831C82.3206 87.075 82.9622 86.5833 83.1664 85.875L84.0414 82.5833L86.9997 84.2917C87.6331 84.6583 88.4372 84.5542 88.9581 84.0417L96.9164 76.0833C97.4456 75.5667 97.5498 74.7542 97.1664 74.125L95.4581 71.1667L98.6581 70.2875L98.7914 70.25C99.4997 70.0708 99.9956 69.4375 99.9997 68.7083V57.4583C99.9831 56.7292 99.4956 56.0917 98.7956 55.8875ZM20.9706 45.2042C20.9164 45.1833 20.8539 45.175 20.7956 45.1542C16.2497 43.3792 14.0039 38.2583 15.7747 33.7125C16.6706 31.4125 18.4914 29.5917 20.7914 28.6958C20.8539 28.6708 20.9164 28.6625 20.9706 28.6417V45.2042ZM20.9706 25.2417C20.9122 25.2417 20.8539 25.2417 20.7956 25.2792C14.3622 27.0583 10.5914 33.7167 12.3706 40.1458C13.5039 44.2375 16.6997 47.4375 20.7956 48.5708L20.9706 48.6083V57.6958L19.6706 57.7042L18.8372 54.7042C18.7039 54.1917 18.3289 53.775 17.8372 53.5792C17.4206 53.45 17.0164 53.2792 16.6289 53.0792C16.1414 52.875 15.5914 52.9083 15.1289 53.1625L12.4622 54.7042L6.25391 48.5292L7.83724 45.8333C8.07891 45.3667 8.09557 44.8125 7.87891 44.3333C7.67891 43.9458 7.50807 43.5417 7.37891 43.125C7.19557 42.625 6.77057 42.25 6.25391 42.125L3.25391 41.3333V32.5833L6.25391 31.75C6.77057 31.625 7.19557 31.25 7.37891 30.75C7.51641 30.3375 7.68307 29.9333 7.87891 29.5417C8.09557 29.0625 8.07891 28.5083 7.83724 28.0417L6.25391 25.375L12.4622 19.1667L15.1289 20.75C15.5956 20.9917 16.1497 21.0083 16.6289 20.7917C17.0456 20.625 17.4206 20.4583 17.8372 20.2917C18.3456 20.1167 18.7247 19.6917 18.8372 19.1667L19.6706 16.2083H20.9706V25.2417ZM75.8122 91.925C75.8164 94.6 73.6456 96.7708 70.9706 96.775H29.0372C26.3664 96.7708 24.1997 94.6083 24.1956 91.9375V87.0833H75.8122V91.925ZM75.8122 24.3333V79.2917V83.875H24.1956V27.4208V16.1292H75.8122V24.3333ZM75.8122 12.9167H24.1956V8.0625C24.1997 5.39167 26.3664 3.22917 29.0372 3.225H70.9706C73.6414 3.22917 75.8081 5.39167 75.8122 8.0625V12.9167ZM93.7539 68.2625C93.2372 68.3875 92.8123 68.7625 92.6289 69.2625C92.4998 69.6792 92.3289 70.0833 92.1289 70.4708C91.9122 70.95 91.9289 71.5042 92.1706 71.9708L93.7539 74.6792L87.5414 80.8333L84.8747 79.2917C84.4123 79.0375 83.8623 79.0083 83.3747 79.2083C82.9873 79.4083 82.5831 79.5792 82.1664 79.7083C81.6747 79.9042 81.2997 80.3208 81.1664 80.8333L80.3331 83.8333H79.0331V79.2917V74.7583C79.0872 74.7583 79.1456 74.7583 79.1997 74.7208C85.6331 72.9417 89.4039 66.2833 87.6247 59.8542C86.4914 55.7625 83.2956 52.5625 79.1997 51.4292L79.0331 51.3958V42.3458H80.3247L81.1581 45.3042C81.2706 45.8292 81.6497 46.2583 82.1581 46.4292C82.5748 46.5958 82.9497 46.7625 83.3664 46.9292C83.8456 47.1458 84.3997 47.1292 84.8664 46.8875L87.5331 45.3042L93.7414 51.5125L92.1581 54.1792C91.9164 54.6458 91.8997 55.2 92.1164 55.6792C92.3122 56.0708 92.4789 56.475 92.6164 56.8875C92.7998 57.3875 93.2247 57.7625 93.7414 57.8875L96.7414 58.7208V67.4708H96.7497L93.7539 68.2625ZM79.0456 71.3542V54.7958C79.0998 54.8167 79.1581 54.825 79.2122 54.8458C82.5247 56.2792 84.7164 59.4917 84.8372 63.0958C84.8372 66.7292 82.5997 69.9917 79.2122 71.3042C79.1539 71.3292 79.0998 71.3333 79.0456 71.3542Z" fill="#1B1B1B"/>
<path d="M44.999 93.5585C45.0532 93.5627 45.1074 93.5627 45.1615 93.5585H54.8365C55.7324 93.6044 56.4949 92.9127 56.5407 92.0169C56.5865 91.121 55.8949 90.3585 54.999 90.3127C54.9449 90.3085 54.8907 90.3085 54.8324 90.3127H45.1657C44.2699 90.2669 43.5074 90.9585 43.4615 91.8544C43.4115 92.7502 44.1032 93.5127 44.999 93.5585Z" fill="#1B1B1B"/>
<path d="M54.3169 6.4375H46.7335C45.8335 6.48333 45.1419 7.25 45.1877 8.14583C45.2294 8.97917 45.896 9.65 46.7335 9.69167H54.3169C55.2169 9.64583 55.9085 8.87917 55.8627 7.98333C55.8169 7.14583 55.1502 6.47917 54.3169 6.4375Z" fill="#1B1B1B"/>
<path d="M40.1615 6.36232C39.2198 6.35816 38.4573 7.12066 38.4531 8.06232C38.449 9.00399 39.2115 9.76649 40.1531 9.77066C41.0948 9.77482 41.8573 9.01232 41.8615 8.07066V8.06232C41.8615 7.12482 41.099 6.36232 40.1615 6.36232Z" fill="#1B1B1B"/>
<path d="M30.641 70.0331H69.391C70.2826 70.0248 70.9993 69.3039 70.9951 68.4123C70.9993 67.5164 70.2743 66.7914 69.3785 66.7873H69.3701H30.641C29.7535 66.7748 29.0243 67.4873 29.0118 68.3748C29.0076 68.7831 29.1576 69.1789 29.4368 69.4831C29.7368 69.8331 30.1785 70.0331 30.641 70.0331Z" fill="#1B1B1B"/>
<path d="M30.4736 78.1962C30.5278 78.2004 30.582 78.2004 30.6361 78.1962H69.3861C70.2778 78.1879 70.9945 77.4629 70.9903 76.5712C70.9903 75.6754 70.2653 74.9504 69.3695 74.9504H30.6403C29.7445 74.9046 28.982 75.5962 28.9361 76.4921C28.8861 77.3879 29.5778 78.1504 30.4736 78.1962Z" fill="#1B1B1B"/>
<path d="M35.9116 55.6249C36.7949 56.5291 37.7741 57.3416 38.8283 58.0416C45.5908 62.5416 54.3991 62.5416 61.1616 58.0416C61.3074 57.9416 61.4283 57.8041 61.5783 57.6999C62.4741 57.0832 63.3116 56.3874 64.0783 55.6166C67.9199 51.8749 70.0824 46.7374 70.0783 41.3749C70.0533 40.4041 69.9533 39.4374 69.7824 38.4832C68.2116 27.5291 58.0616 19.9207 47.1074 21.4916C36.1532 23.0624 28.5408 33.2124 30.1116 44.1666C30.7324 48.5166 32.7699 52.5457 35.9116 55.6249ZM50.0033 58.1666C46.1866 58.1749 42.4824 56.8832 39.5033 54.4999C41.6283 48.6999 48.0533 45.7249 53.8533 47.8499C56.9408 48.9832 59.3741 51.4124 60.5033 54.4999C57.5199 56.8832 53.8158 58.1749 50.0033 58.1666ZM44.6616 38.6666C44.6616 35.7207 47.0491 33.3332 49.9949 33.3332H50.0033C52.9449 33.3374 55.3283 35.7249 55.3283 38.6666C55.3283 41.6124 52.9408 43.9999 49.9949 43.9999C47.0491 43.9999 44.6616 41.6124 44.6616 38.6666ZM49.9574 24.5041C59.2533 24.4832 66.8074 32.0041 66.8283 41.2999C66.8366 45.2374 65.4658 49.0499 62.9533 52.0791C62.2408 50.6332 61.2991 49.3082 60.1616 48.1624C58.8408 46.8541 57.2866 45.8082 55.5783 45.0791C59.1199 41.9957 59.4866 36.6249 56.4032 33.0874C53.3199 29.5457 47.9491 29.1791 44.4116 32.2624C40.8741 35.3457 40.5033 40.7166 43.5866 44.2541C43.8408 44.5457 44.1199 44.8249 44.4116 45.0791C42.7033 45.8082 41.1491 46.8541 39.8283 48.1624C38.6908 49.3082 37.7491 50.6332 37.0366 52.0791C34.5282 49.0749 33.1574 45.2832 33.1616 41.3707C33.1408 32.0791 40.6616 24.5249 49.9574 24.5041Z" fill="#1B1B1B"/>
</g>
<defs>
<clipPath id="clip0_108_203">
<rect width="100" height="100" fill="white"/>
</clipPath>
</defs>
</svg>
