<svg width="100" height="100" viewBox="0 0 100 100" fill="none" xmlns="http://www.w3.org/2000/svg">
<g clip-path="url(#clip0_109_782)">
<path d="M14.8134 48.6602C6.9592 3.7267 85.8115 2.83638 85.6759 42.9837C85.6728 43.904 86.4164 44.6541 87.3367 44.6558C88.2708 44.6575 89.0057 43.9049 89.0089 42.9949C89.163 -2.78655 -0.024208 -0.267655 12.0514 51.7617H8.39738C-2.82182 51.7617 -2.77641 79.0769 8.39738 79.0769H13.5566C15.1941 88.1473 29.2018 87.4143 29.2018 77.3727V53.4282C29.2018 44.9008 18.8148 42.9454 14.8134 48.6602ZM8.39738 55.0947H13.4062V75.7439H8.39738C1.69248 75.7439 1.6929 55.0947 8.39738 55.0947ZM25.8688 77.3727C25.8688 83.6926 16.739 83.6957 16.739 77.3727V53.4282C16.739 47.1587 25.8688 47.1555 25.8688 53.4282V77.3727Z" fill="black"/>
<path d="M93.6602 52.0919C109.272 -14.8694 -3.65783 -17.8326 5.31307 46.5873C5.43993 47.4987 6.28234 48.1355 7.19349 48.008C8.10506 47.8811 8.74103 47.0393 8.61417 46.1276C0.342151 -13.2785 105.292 -10.4857 90.3116 51.7622H86.4574C84.8463 42.7056 70.807 43.4199 70.807 53.4286V77.3731C70.807 87.4064 84.8145 88.149 86.4522 79.0773H87.9037C86.1958 86.3347 80.4851 91.3356 73.2605 91.8716C72.8758 88.1826 69.7484 85.2971 65.9594 85.2971C61.9113 85.2971 58.6181 88.5905 58.6181 92.6384C58.6181 96.6862 61.9115 99.9796 65.9594 99.9796C69.0937 99.9796 71.7742 98.0044 72.8251 95.2341C81.7585 94.8448 89.425 88.6661 91.3135 79.0773H91.6114C102.12 79.0773 102.701 55.1464 93.6602 52.0919ZM65.9594 96.6467C63.7492 96.6467 61.9511 94.8485 61.9511 92.6384C61.9511 90.4282 63.7492 88.63 65.9594 88.63C68.1696 88.63 69.9677 90.4282 69.9677 92.6384C69.9677 94.8485 68.1696 96.6467 65.9594 96.6467ZM74.14 77.3731V53.4286C74.14 47.1568 83.2698 47.1585 83.2698 53.4286V77.3731C83.2696 83.6964 74.14 83.6929 74.14 77.3731ZM91.6114 75.7443H86.6026V55.0951C94.2491 55.0951 90.5661 55.0955 91.6125 55.0955C98.3453 55.0955 98.2578 75.7443 91.6114 75.7443Z" fill="black"/>
<path d="M50.1864 35.477C50.1864 27.8753 38.8359 27.8736 38.8359 35.3937C38.8359 36.314 39.5821 37.0602 40.5024 37.0602C41.4227 37.0602 42.1689 36.314 42.1689 35.3937C42.1689 32.3384 46.8534 32.2059 46.8534 35.477C46.8534 38.7141 38.8359 37.0189 38.8359 45.2909C38.8359 46.2112 39.5821 46.9574 40.5024 46.9574H48.5199C49.4402 46.9574 50.1864 46.2112 50.1864 45.2909C50.1864 44.3706 49.4402 43.6244 48.5199 43.6244H42.3733C43.4602 39.9155 50.1864 41.4482 50.1864 35.477Z" fill="black"/>
<path d="M59.3492 46.9067C60.2695 46.9067 61.0157 46.1605 61.0157 45.2402V42.9207C61.8662 42.8455 62.5332 42.131 62.5332 41.2608C62.5332 40.3907 61.8662 39.6762 61.0157 39.6008V31.4646C61.0157 29.8477 58.929 29.179 57.9908 30.4991L51.027 40.2953C50.2444 41.3965 51.0328 42.9273 52.3854 42.9273H57.6827V45.2404C57.6827 46.1605 58.4287 46.9067 59.3492 46.9067ZM55.6146 39.5941L57.6827 36.6849V39.5941H55.6146Z" fill="black"/>
<path d="M60.6914 55.0924C60.6041 56.0695 61.3743 56.9072 62.3533 56.9072C63.2068 56.9072 63.934 56.2552 64.0113 55.3888L64.4496 50.4797C64.5356 49.5175 63.7863 48.682 62.8185 48.6653L57.8907 48.5801C56.9797 48.5674 56.2115 49.2972 56.1957 50.2177C56.1798 51.1378 56.9129 51.8969 57.8332 51.9127L58.2302 51.9196C52.3707 55.5215 44.6403 54.879 39.4491 49.8694C33.4077 44.0392 32.9565 34.2521 39.2392 27.9447C44.9244 22.2368 53.8859 21.6914 59.9751 26.7181C60.6846 27.3041 61.7351 27.2037 62.321 26.4938C62.907 25.7841 62.8066 24.7338 62.0967 24.1478C54.6981 18.0399 43.7974 18.6453 36.8776 25.5926C29.2792 33.2214 29.7517 45.143 37.1346 52.2679C43.6472 58.5526 53.5099 59.2234 60.7673 54.2443L60.6914 55.0924Z" fill="black"/>
</g>
<defs>
<clipPath id="clip0_109_782">
<rect width="100" height="100" fill="white"/>
</clipPath>
</defs>
</svg>
