<svg width="100" height="100" viewBox="0 0 100 100" fill="none" xmlns="http://www.w3.org/2000/svg">
<path d="M79.7812 78.4531C79.5938 78.3438 79.4219 78.2344 79.2344 78.125V29.5625C79.2344 28.6562 79.0625 27.75 78.7656 26.8906C78.7344 26.8125 78.7188 26.75 78.6719 26.6875C78.4062 26 78.0625 25.3281 77.6094 24.7344L64.625 7.8125C63.125 5.875 60.7812 4.71875 58.3594 4.71875H17.9219C13.5781 4.71875 10.0469 8.26562 10.0469 12.625V82.1562C10.0469 86.5156 13.5781 90.0625 17.9219 90.0625H66.4844C66.6875 90.4062 66.9062 90.7344 67.1094 91.0938C67.9062 92.4531 68.8906 93.7344 70.0312 94.875C72.4531 97.2969 74.9062 98.5156 77.3281 98.5156C79.5938 98.5156 81.8281 97.4531 83.9688 95.3125C88.375 90.8906 88.2188 86.0625 83.5312 81.375C82.3125 80.1562 81.0312 79.1719 79.7656 78.4531H79.7812ZM74.5 25.8281H65.6719C64.2187 25.8125 63.0312 24.625 63.0312 23.1562V10.9062L74.5 25.8438V25.8281ZM17.9219 86.9375C15.2969 86.9375 13.1719 84.7969 13.1719 82.1562V12.6563C13.1719 10.0156 15.2969 7.875 17.9219 7.875H58.3594C58.8906 7.875 59.4219 8 59.9219 8.17188V23.1562C59.9219 26.3437 62.5 28.9375 65.6875 28.9375H76.0781C76.1094 29.1562 76.125 29.3594 76.125 29.5625V76.125C73.6094 74.4219 71.4844 72.75 69.6406 70.9844C75.2812 60.9375 73.625 48.1406 65.3594 39.875C55.2188 29.7656 38.7344 29.7656 28.6094 39.875C19.8906 48.6094 18.5 62.3906 25.3281 72.6406C26.2812 74.0781 27.375 75.4219 28.6094 76.6562C33.6719 81.7188 40.3281 84.25 46.9844 84.25C51.3594 84.25 55.7344 83.125 59.6562 80.9375C61.3125 82.6562 62.8906 84.625 64.4687 86.9219H17.9219V86.9375ZM30.7969 74.4531C29.7187 73.375 28.7344 72.1875 27.9062 70.9219C21.9063 61.8906 23.125 49.7812 30.7969 42.0938C35.25 37.6406 41.1094 35.4219 46.9688 35.4219C52.8281 35.4219 58.6875 37.6406 63.1406 42.0938C70.8125 49.7812 72.0312 61.8906 66.0312 70.9219C65.2031 72.1875 64.2188 73.375 63.1406 74.4531C54.2188 83.375 39.7187 83.375 30.7969 74.4531ZM81.7812 93.1094C78.625 96.2344 75.6875 96.1094 72.25 92.6719C71.2969 91.7188 70.4531 90.6406 69.7969 89.5156C67.2812 85.2969 64.875 82 62.2969 79.2344C63.3594 78.4531 64.375 77.625 65.3281 76.6719C66.2656 75.7344 67.0937 74.7188 67.875 73.6562C70.6406 76.2188 73.9375 78.625 78.1875 81.1719C79.25 81.7656 80.2969 82.5781 81.3125 83.5938C84.75 87.0312 84.8906 89.9688 81.75 93.1094H81.7812ZM65.7188 58.8125C65.7188 57.5469 65.1562 56.3594 64.1719 55.5625C60.7188 52.75 54.9531 49.375 47.1719 49.3125H46.9688C39.1094 49.3125 33.2812 52.7031 29.7656 55.5625C28.7812 56.3594 28.2187 57.5469 28.2187 58.8125C28.2187 60.0781 28.7812 61.2656 29.7656 62.0625C33.2812 64.9219 39.0937 68.3125 46.9688 68.3125H47.1719C54.9688 68.25 60.7188 64.875 64.1719 62.0625C65.1562 61.2656 65.7188 60.0781 65.7188 58.8125ZM47.1562 65.0781C43.7031 65.0781 40.8906 62.2656 40.8906 58.8125C40.8906 55.3594 43.7031 52.5469 47.1562 52.5469C50.6094 52.5469 53.4219 55.3594 53.4219 58.8125C53.4219 62.2656 50.6094 65.0781 47.1562 65.0781ZM31.3437 58.8125C31.3437 58.625 31.3906 58.2656 31.7344 57.9844C33.5469 56.5 36.0781 54.8906 39.2344 53.7812C38.2969 55.2344 37.75 56.9688 37.75 58.8281C37.75 60.6875 38.2969 62.4062 39.2344 63.875C36.0781 62.7656 33.5469 61.1406 31.7344 59.6719C31.3906 59.3906 31.3437 59.0312 31.3437 58.8438V58.8125ZM62.2031 59.6406C60.4844 61.0312 58.125 62.5781 55.1875 63.6719C56.0469 62.25 56.5625 60.5938 56.5625 58.8125C56.5625 57.0312 56.0469 55.375 55.1875 53.9531C58.125 55.0625 60.5 56.5938 62.2031 57.9844C62.5469 58.2656 62.5938 58.625 62.5938 58.8125C62.5938 59 62.5469 59.3594 62.2031 59.6406ZM21 18.0156C21 17.1562 21.6875 16.4531 22.5469 16.4375L43.5156 16.3125C44.375 16.3125 45.0781 17 45.0781 17.8594C45.0781 18.7188 44.3906 19.4219 43.5312 19.4375L22.5625 19.5625C21.7031 19.5625 21 18.875 21 18.0156ZM20.9844 25.0781C20.9844 24.2187 21.6719 23.5156 22.5312 23.5L32.2344 23.3906H32.25C33.1094 23.3906 33.7969 24.0781 33.8125 24.9375C33.8125 25.7969 33.125 26.5 32.2656 26.5156L22.5625 26.625H22.5469C21.6875 26.625 21 25.9375 20.9844 25.0781Z" fill="black"/>
</svg>
