<svg width="100" height="100" viewBox="0 0 100 100" fill="none" xmlns="http://www.w3.org/2000/svg">
<g clip-path="url(#clip0_107_98)">
<path d="M80.8613 29.0527C81.9398 29.0527 82.8145 28.1783 82.8145 27.0996V5.85938C82.8145 2.62852 80.1859 0 76.9551 0H5.86133C2.63047 0 0.00195312 2.62852 0.00195312 5.85938V94.1406C0.00195312 97.3715 2.63047 100 5.86133 100H76.9551C80.1859 100 82.8145 97.3715 82.8145 94.1406V79.7516C82.8145 78.6729 81.9398 77.7984 80.8613 77.7984C79.7828 77.7984 78.9082 78.6729 78.9082 79.7516V94.1406C78.9082 95.2176 78.032 96.0938 76.9551 96.0938H5.86133C4.78438 96.0938 3.9082 95.2176 3.9082 94.1406V5.85938C3.9082 4.78242 4.78438 3.90625 5.86133 3.90625H76.9551C78.032 3.90625 78.9082 4.78242 78.9082 5.85938V27.0996C78.9082 28.1783 79.7828 29.0527 80.8613 29.0527Z" fill="black"/>
<path d="M41.4082 10.5469C31.5002 10.5469 23.4395 18.6076 23.4395 28.5156C23.4395 33.6557 25.6094 38.2978 29.0805 41.576C29.1455 41.6455 29.2146 41.7113 29.2902 41.7713C32.4877 44.6969 36.743 46.4842 41.408 46.4842C46.073 46.4842 50.3283 44.6967 53.5258 41.7713C53.6014 41.7113 53.6705 41.6453 53.7355 41.576C57.207 38.2978 59.3769 33.6557 59.3769 28.5156C59.3769 18.6076 51.3162 10.5469 41.4082 10.5469ZM41.4082 42.5781C38.2189 42.5781 35.2756 41.5094 32.9139 39.7133C34.6305 36.6693 37.8338 34.7656 41.4082 34.7656C44.9826 34.7656 48.1859 36.6693 49.9025 39.7133C47.5406 41.5094 44.5975 42.5781 41.4082 42.5781ZM38.2832 27.7344V26.4648C38.2832 24.7418 39.6852 23.3398 41.4082 23.3398C43.1313 23.3398 44.5332 24.7418 44.5332 26.4648V27.7344C44.5332 29.4574 43.1313 30.8594 41.4082 30.8594C39.6852 30.8594 38.2832 29.4574 38.2832 27.7344ZM52.7246 36.8521C51.2842 34.7158 49.2879 33.0543 46.9701 32.0285C47.89 30.8396 48.4395 29.3504 48.4395 27.7344V26.4648C48.4395 22.5877 45.2854 19.4336 41.4082 19.4336C37.5311 19.4336 34.377 22.5877 34.377 26.4648V27.7344C34.377 29.3504 34.9264 30.8396 35.8463 32.0285C33.5285 33.0543 31.5322 34.7158 30.0918 36.8521C28.3674 34.5176 27.3457 31.6342 27.3457 28.5156C27.3457 20.7615 33.6541 14.4531 41.4082 14.4531C49.1623 14.4531 55.4707 20.7615 55.4707 28.5156C55.4707 31.6342 54.449 34.5176 52.7246 36.8521Z" fill="black"/>
<path d="M51.9551 85.5469H41.4082C40.3297 85.5469 39.4551 86.4213 39.4551 87.5C39.4551 88.5787 40.3297 89.4531 41.4082 89.4531H51.9551C53.0336 89.4531 53.9082 88.5787 53.9082 87.5C53.9082 86.4213 53.0336 85.5469 51.9551 85.5469Z" fill="black"/>
<path d="M51.9551 74.6094H24.2207C23.1422 74.6094 22.2676 75.4838 22.2676 76.5625C22.2676 77.6412 23.1422 78.5156 24.2207 78.5156H51.9551C53.0336 78.5156 53.9082 77.6412 53.9082 76.5625C53.9082 75.4838 53.0336 74.6094 51.9551 74.6094Z" fill="black"/>
<path d="M51.9551 63.6719H24.2207C23.1422 63.6719 22.2676 64.5463 22.2676 65.625C22.2676 66.7037 23.1422 67.5781 24.2207 67.5781H51.9551C53.0336 67.5781 53.9082 66.7037 53.9082 65.625C53.9082 64.5463 53.0336 63.6719 51.9551 63.6719Z" fill="black"/>
<path d="M17.2596 53.3066C16.8965 52.9434 16.3926 52.7344 15.877 52.7344C15.3631 52.7344 14.8592 52.9434 14.4961 53.3066C14.1328 53.6699 13.9238 54.1738 13.9238 54.6875C13.9238 55.2012 14.1326 55.7051 14.4961 56.0684C14.8613 56.4316 15.3631 56.6406 15.877 56.6406C16.3926 56.6406 16.8945 56.4316 17.2596 56.0684C17.6229 55.7051 17.832 55.2012 17.832 54.6875C17.832 54.1738 17.623 53.6699 17.2596 53.3066Z" fill="black"/>
<path d="M17.2596 64.2441C16.8945 63.8809 16.3926 63.6719 15.877 63.6719C15.3631 63.6719 14.8613 63.8809 14.4961 64.2441C14.1328 64.6074 13.9238 65.1113 13.9238 65.625C13.9238 66.1387 14.1326 66.6426 14.4961 67.0059C14.8613 67.3691 15.3631 67.5781 15.877 67.5781C16.3926 67.5781 16.8945 67.3691 17.2596 67.0059C17.6229 66.6426 17.832 66.1387 17.832 65.625C17.832 65.1113 17.623 64.6074 17.2596 64.2441Z" fill="black"/>
<path d="M17.2596 75.1816C16.8945 74.8184 16.3926 74.6094 15.877 74.6094C15.3631 74.6094 14.8613 74.8184 14.4961 75.1816C14.1328 75.5449 13.9238 76.0488 13.9238 76.5625C13.9238 77.0762 14.1326 77.5801 14.4961 77.9434C14.8592 78.3066 15.3631 78.5156 15.877 78.5156C16.3926 78.5156 16.8965 78.3066 17.2596 77.9434C17.6229 77.5801 17.832 77.0762 17.832 76.5625C17.832 76.0488 17.623 75.5449 17.2596 75.1816Z" fill="black"/>
<path d="M51.9551 52.7344H24.2207C23.1422 52.7344 22.2676 53.6088 22.2676 54.6875C22.2676 55.7662 23.1422 56.6406 24.2207 56.6406H51.9551C53.0336 56.6406 53.9082 55.7662 53.9082 54.6875C53.9082 53.6088 53.0336 52.7344 51.9551 52.7344Z" fill="black"/>
<path d="M95.899 25.4531C94.0015 24.3576 91.791 24.0666 89.6742 24.6336C87.5578 25.2007 85.7886 26.5582 84.6933 28.4556L60.1148 71.0265C59.9802 71.2599 59.8951 71.5187 59.8652 71.7865L58.1351 87.2834C58.0492 88.0545 58.4277 88.8035 59.0996 89.1916C59.4029 89.3666 59.7398 89.4533 60.0759 89.4533C60.4845 89.4533 60.8916 89.3254 61.2343 89.0728L73.7898 79.8259C74.0068 79.6662 74.1884 79.4632 74.323 79.2298L98.9013 36.6589C101.163 32.7418 99.8162 27.7148 95.899 25.4531ZM62.5125 83.28L63.416 75.1879L69.0687 78.4515L62.5125 83.28ZM71.9168 75.5851L64.4744 71.2882L84.198 37.1261L91.6404 41.423L71.9168 75.5851ZM95.5185 34.7056L93.5933 38.0402L86.1509 33.7433L88.0761 30.4088C88.65 29.4148 89.5765 28.7039 90.6851 28.4068C91.7941 28.1095 92.9519 28.2623 93.9457 28.8361C94.9396 29.4099 95.6505 30.3365 95.9476 31.4451C96.2447 32.5537 96.0923 33.7117 95.5185 34.7056Z" fill="black"/>
</g>
<defs>
<clipPath id="clip0_107_98">
<rect width="100" height="100" fill="white"/>
</clipPath>
</defs>
</svg>
