<svg width="100" height="100" viewBox="0 0 100 100" fill="none" xmlns="http://www.w3.org/2000/svg">
<g clip-path="url(#clip0_107_129)">
<path d="M1.95312 47.5699H37.2502C38.3287 47.5699 39.2033 46.6953 39.2033 45.6168V35.7951C39.2033 30.2629 34.9367 25.7084 29.5213 25.2496C32.4148 22.5879 34.2295 18.7805 34.2295 14.559C34.2295 6.53105 27.6674 0 19.6016 0C11.5357 0 4.97402 6.53105 4.97402 14.5588C4.97402 18.7803 6.78867 22.5877 9.68223 25.2494C4.2666 25.7084 0 30.2627 0 35.7951V45.6168C0 46.6953 0.874609 47.5699 1.95312 47.5699ZM8.88027 14.5588C8.88027 8.68496 13.6898 3.90625 19.6016 3.90625C25.5133 3.90625 30.3232 8.68496 30.3232 14.5588C30.3232 20.4326 25.5135 25.2113 19.6016 25.2113C13.6896 25.2113 8.88027 20.4326 8.88027 14.5588ZM3.90625 35.7951C3.90625 32.1131 6.90176 29.1178 10.5836 29.1178H28.6195C32.3016 29.1178 35.2969 32.1133 35.2969 35.7951V43.6637H3.90625V35.7951Z" fill="black"/>
<path d="M80.3641 43.4584C84.4676 43.4584 87.8061 40.1201 87.8061 36.0166V7.4418C87.8059 3.33848 84.4676 0 80.3641 0H50.5219C46.4186 0 43.0801 3.33848 43.0801 7.4418V36.0168C43.0801 40.1203 46.4186 43.4586 50.5219 43.4586H54.4777L54.8752 45.9275C54.9711 46.5227 55.3363 47.04 55.8648 47.3299C56.1563 47.4896 56.4793 47.5701 56.8035 47.5701C57.0672 47.5701 57.3313 47.5168 57.5795 47.4094L66.7064 43.4586L80.3641 43.4584ZM65.526 39.7129L58.3324 42.8266L58.0697 41.1947C57.9174 40.248 57.1002 39.5522 56.1414 39.5522H50.5219C48.5725 39.5522 46.9863 37.9662 46.9863 36.0166V7.4418C46.9863 5.49238 48.5723 3.90625 50.5219 3.90625H80.3641C82.3135 3.90625 83.8998 5.49219 83.8998 7.4418V36.0168C83.8998 37.9662 82.3137 39.5523 80.3641 39.5523H66.302C66.0352 39.5521 65.7709 39.6068 65.526 39.7129Z" fill="black"/>
<path d="M65.5912 8.87363C65.5418 8.87266 65.4928 8.87207 65.4437 8.87207C61.8553 8.87207 58.7986 11.5211 58.3016 15.0904C58.2557 15.4215 58.2324 15.7592 58.2324 16.0941C58.2324 17.1727 59.107 18.0473 60.1855 18.0473C61.2641 18.0473 62.1387 17.1727 62.1387 16.0941C62.1387 15.9385 62.1496 15.7816 62.1707 15.6287C62.3986 13.9928 63.7996 12.7783 65.4449 12.7783C65.4672 12.7783 65.4898 12.7787 65.5125 12.7791C67.2352 12.8141 68.6545 14.1912 68.7437 15.915C68.7914 16.8381 68.4693 17.7135 67.8361 18.3803C67.2055 19.0443 66.3561 19.41 65.4437 19.41C64.3652 19.41 63.4906 20.2846 63.4906 21.3631V25.4377C63.4906 26.5162 64.3652 27.3908 65.4437 27.3908C66.5223 27.3908 67.3969 26.5162 67.3969 25.4377V23.0436C68.6338 22.693 69.7715 22.0148 70.6689 21.0699C72.0469 19.6186 72.7484 17.7162 72.6447 15.7129C72.4498 11.9537 69.3518 8.94961 65.5912 8.87363Z" fill="black"/>
<path d="M67.2485 31.7514C66.9335 30.9836 66.1325 30.491 65.3056 30.5508C64.4939 30.6094 63.7923 31.1803 63.5679 31.9617C63.3433 32.7443 63.6437 33.6113 64.3067 34.0858C64.9599 34.5529 65.8595 34.567 66.5278 34.1225C67.2935 33.6135 67.6017 32.6002 67.2485 31.7514Z" fill="black"/>
<path d="M90.3182 79.6322C93.2117 76.9705 95.0264 73.1631 95.0264 68.9416C95.0264 60.9139 88.4645 54.3828 80.3986 54.3828C72.3328 54.3828 65.7707 60.9139 65.7707 68.9416C65.7707 73.1631 67.5854 76.9705 70.4789 79.6322C65.0633 80.0912 60.7969 84.6455 60.7969 90.1777V98.0465C60.7969 99.125 61.6715 99.9996 62.75 99.9996H98.0473C99.1258 99.9996 100 99.125 100 98.0465V90.1779C100 84.6457 95.7338 80.0912 90.3182 79.6322ZM69.6771 68.9416C69.6771 63.0678 74.4869 58.2891 80.3988 58.2891C86.3107 58.2891 91.1203 63.0678 91.1203 68.9416C91.1203 74.8154 86.3107 79.5941 80.3988 79.5941C74.4869 79.5941 69.6771 74.8156 69.6771 68.9416ZM96.0941 96.0934H64.7033V90.1779C64.7033 86.4959 67.6988 83.5006 71.3807 83.5006H89.4166C93.0986 83.5006 96.0939 86.4961 96.0939 90.1779V96.0934H96.0941Z" fill="black"/>
<path d="M49.4773 54.3828H7.4418C3.33848 54.3828 0 57.7213 0 61.8248V81.8262C0 85.9297 3.33848 89.268 7.4418 89.268H33.127L42.1447 95.0256C42.4637 95.2293 42.8291 95.3324 43.1959 95.3324C43.4836 95.3324 43.7721 95.269 44.0398 95.1406C44.6488 94.8488 45.0639 94.2629 45.1373 93.5912L45.6092 89.268H49.4773C53.5807 89.268 56.9191 85.9297 56.9191 81.8262V61.8248C56.9191 57.7213 53.5807 54.3828 49.4773 54.3828ZM53.0129 81.8262C53.0129 83.7756 51.427 85.3617 49.4773 85.3617H43.8578C42.8611 85.3617 42.0244 86.1121 41.9162 87.1029L41.5955 90.0402L34.7484 85.6686C34.4346 85.4682 34.0697 85.3617 33.6973 85.3617H7.4418C5.49238 85.3617 3.90625 83.7758 3.90625 81.8262V61.8248C3.90625 59.8754 5.49219 58.2891 7.4418 58.2891H49.4775C51.427 58.2891 53.0131 59.8752 53.0131 61.8248V81.8262H53.0129Z" fill="black"/>
<path d="M15.0781 68.8535H24.8916C25.9701 68.8535 26.8447 67.9789 26.8447 66.9004C26.8447 65.8219 25.9701 64.9473 24.8916 64.9473H15.0781C13.9996 64.9473 13.125 65.8219 13.125 66.9004C13.125 67.9789 13.9996 68.8535 15.0781 68.8535Z" fill="black"/>
<path d="M41.8402 64.9473C41.0117 64.9473 40.2593 65.4904 39.9925 66.2732C39.7271 67.0521 39.9926 67.94 40.6439 68.4441C41.2793 68.9359 42.1748 68.9844 42.8599 68.5656C43.5443 68.1473 43.9127 67.3225 43.7599 66.534C43.584 65.626 42.7664 64.9473 41.8402 64.9473Z" fill="black"/>
<path d="M31.9024 67.6478C32.2164 68.4025 32.9848 68.8892 33.8014 68.8506C34.6051 68.8125 35.3186 68.2623 35.5645 67.4972C35.8133 66.7228 35.5434 65.8441 34.894 65.3509C34.2328 64.849 33.3137 64.8195 32.6211 65.2769C31.851 65.7853 31.5541 66.7994 31.9024 67.6478Z" fill="black"/>
<path d="M41.8408 74.123H24.2148C23.1363 74.123 22.2617 74.9977 22.2617 76.0762C22.2617 77.1547 23.1363 78.0293 24.2148 78.0293H41.8408C42.9193 78.0293 43.7939 77.1547 43.7939 76.0762C43.7939 74.9977 42.9193 74.123 41.8408 74.123Z" fill="black"/>
<path d="M17.5717 74.123H15.0781C13.9996 74.123 13.125 74.9977 13.125 76.0762C13.125 77.1547 13.9996 78.0293 15.0781 78.0293H17.5717C18.6502 78.0293 19.5248 77.1547 19.5248 76.0762C19.5248 74.9977 18.6502 74.123 17.5717 74.123Z" fill="black"/>
</g>
<defs>
<clipPath id="clip0_107_129">
<rect width="100" height="100" fill="white"/>
</clipPath>
</defs>
</svg>
