<svg width="100" height="100" viewBox="0 0 100 100" fill="none" xmlns="http://www.w3.org/2000/svg">
<g clip-path="url(#clip0_108_142)">
<path d="M29.6202 43.3856L29.6165 43.4492C29.3702 47.7646 31.7874 51.8073 35.7765 53.7455L35.8174 53.7655C37.2238 54.4382 38.3765 55.5473 39.1037 56.9264L39.1201 56.9564C41.1301 60.7836 45.2873 63.1036 49.7191 62.8709L49.7864 62.8673C51.3937 62.7773 52.9891 63.1918 54.3491 64.0536C58.1018 66.4009 62.8654 66.4009 66.6181 64.0536C67.9781 63.1918 69.5736 62.7773 71.1808 62.8673L71.2481 62.8709C75.6726 63.1054 79.8353 60.7836 81.8498 56.95L81.8598 56.9291C82.5898 55.5464 83.7453 54.4355 85.1562 53.7619L85.1889 53.7455C89.178 51.8064 91.5961 47.7646 91.3489 43.4483L91.3452 43.3883C91.2634 41.8683 91.6852 40.3638 92.547 39.1083C95.0279 35.4902 95.0279 30.7193 92.548 27.1002C91.687 25.8457 91.2634 24.342 91.3452 22.8221L91.3489 22.7584C91.5961 18.4421 89.178 14.4003 85.1853 12.4603L85.1489 12.4421C83.7453 11.7712 82.5953 10.6676 81.8671 9.29214L81.8462 9.25123C79.8353 5.42398 75.6726 3.1049 71.2481 3.33672L71.1799 3.34035C69.5736 3.43035 67.9781 3.01581 66.619 2.154H66.6172C62.8645 -0.19326 58.1009 -0.19326 54.3482 2.154C52.9882 3.0149 51.3928 3.42945 49.7855 3.33945L49.7182 3.33581C45.2928 3.10127 41.131 5.42307 39.121 9.24941L39.1056 9.27759C38.3774 10.6594 37.2238 11.7694 35.8156 12.443L35.7774 12.4612C31.7883 14.3994 29.3702 18.4421 29.6174 22.7584L29.6211 22.8184C29.7029 24.3384 29.2811 25.8429 28.4193 27.0975C25.9384 30.7165 25.9384 35.4883 28.4193 39.1065C29.2802 40.361 29.7029 41.8656 29.6202 43.3856ZM31.4838 29.212C32.8138 27.2757 33.4656 24.9539 33.3383 22.6084L33.3347 22.5448C33.2038 19.6848 34.8092 17.0285 37.401 15.813L37.4328 15.7976C39.5592 14.7794 41.3001 13.103 42.3983 11.0176L42.4164 10.983C43.7519 8.43941 46.5492 6.89761 49.52 7.05579L49.5855 7.05851C51.9628 7.19215 54.3218 6.57943 56.3327 5.30489C58.8718 3.71672 62.0936 3.71672 64.6327 5.30489C66.6436 6.57761 69.0026 7.19124 71.379 7.05942L71.4445 7.05579C74.4299 6.89942 77.2135 8.43941 78.5453 10.9758L78.5699 11.0221C79.668 13.1048 81.4071 14.7785 83.5307 15.7957L83.5616 15.8112C86.1944 17.0912 87.7925 19.7339 87.6316 22.5457L87.628 22.6121C87.5007 24.9575 88.1534 27.2784 89.4834 29.2147C91.0907 31.5593 91.0898 34.6502 89.4816 36.9938C88.1525 38.931 87.5007 41.2528 87.628 43.5983L87.6316 43.661C87.7925 46.4728 86.1944 49.1164 83.5607 50.3973L83.5335 50.4101C81.4053 51.4301 79.6626 53.1082 78.5635 55.1973L78.5499 55.2246C77.2135 57.7682 74.4208 59.3109 71.4454 59.1518L71.3808 59.1482C69.0036 59.0155 66.6436 59.6291 64.6318 60.9027C62.0936 62.49 58.8718 62.49 56.3336 60.9027C54.5046 59.7436 52.3827 59.1291 50.2173 59.1309C50.0073 59.1309 49.7964 59.1364 49.5855 59.1482L49.52 59.1509C46.5882 59.3373 43.8146 57.8027 42.4137 55.22L42.3946 55.1846C41.2983 53.1028 39.5601 51.4301 37.4374 50.4128L37.4028 50.3955C34.7692 49.1155 33.1711 46.4719 33.3329 43.661L33.3365 43.5947C33.4629 41.2492 32.8101 38.9274 31.4811 36.992C29.8747 34.6474 29.8756 31.5565 31.4838 29.2138V29.212Z" fill="black"/>
<path d="M48.4702 52.3513C49.342 52.8958 50.4902 52.6295 51.0347 51.7577L73.09 16.4251C73.45 15.8606 73.48 15.1461 73.1673 14.5542C72.8546 13.9615 72.2473 13.5833 71.5782 13.5624C70.9091 13.5415 70.28 13.8815 69.9309 14.4533L47.8765 49.7858C47.332 50.6586 47.5975 51.8067 48.4702 52.3513Z" fill="black"/>
<path d="M50.4464 33.196C54.98 33.196 58.6691 28.9897 58.6691 23.8197C58.6691 18.6498 54.98 14.4443 50.4464 14.4443C45.9128 14.4443 42.2246 18.6498 42.2246 23.8197C42.2246 28.9897 45.9128 33.196 50.4464 33.196ZM50.4464 18.1679C52.9273 18.1679 54.9454 20.7034 54.9454 23.8197C54.9454 26.9361 52.9273 29.4724 50.4464 29.4724C47.9664 29.4724 45.9482 26.9352 45.9482 23.8197C45.9482 20.7043 47.9664 18.1679 50.4464 18.1679Z" fill="black"/>
<path d="M62.2969 42.39C62.2969 47.56 65.985 51.7654 70.5186 51.7654C75.0522 51.7654 78.7413 47.5591 78.7413 42.39C78.7413 37.2219 75.0532 33.0146 70.5196 33.0146C65.985 33.0146 62.2969 37.2192 62.2969 42.39ZM75.0177 42.39C75.0177 45.5064 72.9995 48.0418 70.5186 48.0418C68.0387 48.0418 66.0205 45.5064 66.0205 42.39C66.0205 39.2737 68.0387 36.7383 70.5186 36.7383C72.9995 36.7383 75.0177 39.2719 75.0177 42.39Z" fill="black"/>
<path d="M99.7583 73.3059C97.2928 68.9305 91.8256 67.2641 87.3393 69.5205L72.7548 76.4113C70.7412 72.6668 66.8785 70.2832 62.6276 70.1632L49.164 69.7923C47.0322 69.7314 44.9404 69.1905 43.045 68.2123L41.675 67.5023C34.6605 63.846 26.2996 63.8551 19.2924 67.5259L19.3779 64.4223C19.406 63.3942 18.5961 62.5378 17.5679 62.5096L2.80433 62.1033C1.77616 62.0751 0.920708 62.8851 0.892526 63.9132L0.000713634 96.3121C-0.0274681 97.3403 0.782527 98.1967 1.8107 98.2248L16.5742 98.6312H16.6261C17.6342 98.6303 18.4588 97.8276 18.487 96.8203L18.5288 95.2703L22.3642 93.2167C23.8697 92.4067 25.6306 92.214 27.2751 92.6794L50.1777 99.1076C50.2177 99.1194 50.2577 99.1285 50.2986 99.1376C51.954 99.4839 53.6413 99.6576 55.3331 99.6567C58.9149 99.6585 62.4549 98.8867 65.7103 97.3921C65.7903 97.3558 65.8676 97.3139 65.9412 97.2667L99.1483 75.7859C99.9764 75.2514 100.244 74.1632 99.7583 73.3059ZM3.77433 94.5531L4.56341 65.8778L15.6052 66.1814L14.8152 94.8576L3.77433 94.5531ZM64.0321 94.0649C59.9876 95.8903 55.4704 96.3939 51.1231 95.5049L28.2814 89.0949C25.7115 88.3676 22.9588 88.6695 20.6069 89.934L18.647 90.9831L19.1724 71.9168C25.3824 67.7859 33.3478 67.3614 39.9623 70.8077L41.3323 71.5177C43.7268 72.7541 46.3686 73.4368 49.0622 73.5141L62.5258 73.885C66.3076 73.9932 69.5194 76.6859 70.2866 80.3913L50.2322 79.8395C49.204 79.8113 48.3486 80.6213 48.3204 81.6495C48.2922 82.6777 49.1022 83.534 50.1304 83.5622L72.2621 84.1713H72.3148C73.3221 84.1704 74.1466 83.3677 74.1748 82.3604C74.1975 81.5513 74.1366 80.7413 73.9948 79.945L88.9511 72.8768L88.9947 72.8559C91.1165 71.7814 93.6829 72.1405 95.4274 73.7559L64.0321 94.0649Z" fill="black"/>
</g>
<defs>
<clipPath id="clip0_108_142">
<rect width="100" height="100" fill="white"/>
</clipPath>
</defs>
</svg>
